<?xml version="1.0" standalone="no"?>
<!DOCTYPE svg PUBLIC "-//W3C//DTD SVG 20010904//EN"
 "http://www.w3.org/TR/2001/REC-SVG-20010904/DTD/svg10.dtd">
<svg version="1.0" xmlns="http://www.w3.org/2000/svg"
 width="1920.000000pt" height="2560.000000pt" viewBox="0 0 1920.000000 2560.000000"
 preserveAspectRatio="xMidYMid meet">

<g transform="translate(0.000000,2560.000000) scale(0.100000,-0.100000)"
fill="#000000" stroke="none">
<path d="M9547 22604 c-6 -6 -149 -15 -247 -15 -19 0 -39 -3 -45 -8 -5 -4 -30
-9 -55 -10 -25 -2 -48 -8 -51 -13 -4 -6 -16 -8 -28 -5 -11 3 -25 -1 -31 -8 -6
-8 -18 -11 -26 -8 -8 3 -14 0 -14 -6 0 -7 -10 -9 -27 -5 -19 4 -24 3 -15 -4
13 -9 3 -18 -30 -27 -5 -2 -9 -3 -10 -4 -2 -1 -20 -4 -41 -6 -27 -3 -36 -1
-32 8 4 7 0 4 -8 -5 -8 -10 -22 -18 -31 -18 -9 0 -16 -5 -16 -11 0 -5 -8 -9
-17 -8 -10 1 -20 1 -23 0 -3 -1 -43 -3 -88 -4 -46 -2 -87 -8 -90 -14 -4 -5
-41 -15 -82 -22 -41 -7 -82 -19 -90 -26 -8 -8 -33 -16 -55 -18 -39 -5 -105
-26 -115 -38 -3 -3 -31 -16 -62 -28 -32 -13 -58 -27 -58 -32 0 -5 -6 -9 -14
-9 -8 0 -16 -4 -18 -9 -1 -4 -23 -21 -47 -37 -24 -16 -49 -32 -55 -37 -6 -4
-36 -18 -66 -32 -30 -14 -62 -29 -70 -34 -53 -30 -81 -41 -90 -36 -6 3 -10 2
-10 -4 0 -6 -12 -14 -27 -17 -41 -11 -104 -45 -110 -61 -3 -7 -17 -20 -32 -28
-14 -8 -41 -28 -58 -45 -18 -17 -35 -30 -38 -30 -26 1 -37 -5 -71 -35 -21 -19
-41 -35 -45 -35 -5 0 -29 -31 -55 -69 -27 -39 -54 -68 -63 -67 -10 1 -15 -6
-13 -16 2 -10 -3 -18 -10 -18 -17 0 -98 -85 -98 -103 0 -28 -73 -86 -155 -124
-22 -10 -47 -26 -56 -35 -9 -10 -20 -18 -26 -18 -5 0 -24 -13 -43 -30 -19 -16
-42 -29 -51 -30 -21 0 -119 -100 -119 -120 0 -9 -5 -21 -12 -28 -9 -9 -9 -12
0 -12 10 0 10 -5 2 -20 -11 -20 -10 -21 43 -61 37 -28 34 -47 -13 -98 -22 -23
-40 -47 -40 -52 0 -6 -12 -22 -26 -37 -14 -15 -32 -41 -40 -59 -7 -17 -18 -35
-24 -38 -7 -4 -8 -23 -4 -51 6 -39 4 -44 -13 -44 -18 0 -53 -28 -53 -43 0 -8
-43 -71 -61 -90 -17 -18 -109 -122 -144 -162 -14 -16 -25 -35 -25 -41 0 -6
-16 -24 -35 -40 -19 -16 -35 -33 -35 -38 0 -4 -11 -17 -25 -28 -34 -27 -85
-116 -85 -150 0 -14 -11 -40 -25 -56 -14 -17 -25 -34 -25 -39 0 -5 -9 -19 -20
-31 -11 -12 -21 -25 -21 -29 -1 -11 -45 -112 -68 -153 -26 -48 -31 -63 -31
-90 0 -17 -7 -47 -15 -67 -8 -19 -15 -46 -15 -59 0 -24 -39 -155 -49 -164 -12
-10 -51 -101 -51 -118 0 -10 -6 -26 -13 -37 -25 -36 -39 -88 -26 -96 13 -8 16
-90 4 -109 -4 -6 -9 -57 -11 -113 -3 -56 -8 -116 -13 -133 -5 -18 -7 -74 -5
-125 6 -140 7 -267 2 -654 -6 -425 9 -573 71 -735 12 -30 23 -71 26 -90 4 -35
30 -101 67 -172 10 -20 25 -74 33 -119 8 -45 21 -91 28 -103 8 -12 22 -45 31
-73 10 -29 22 -53 27 -53 5 0 12 -8 16 -17 6 -19 30 -76 68 -158 13 -27 28
-67 35 -87 6 -21 16 -38 21 -38 16 0 10 -28 -8 -34 -10 -4 -51 -9 -93 -11
-110 -7 -202 -46 -259 -111 -42 -47 -48 -65 -75 -212 -28 -152 -29 -348 -1
-427 9 -27 19 -61 22 -75 2 -13 9 -30 15 -37 10 -13 26 -72 32 -123 2 -14 5
-27 6 -30 1 -3 3 -9 4 -15 1 -5 5 -17 8 -25 8 -23 48 -253 49 -284 0 -11 4
-27 10 -38 5 -10 14 -44 20 -75 9 -56 27 -143 51 -248 6 -27 14 -52 19 -55 4
-3 9 -12 11 -20 2 -8 8 -20 15 -28 7 -7 10 -19 7 -27 -4 -8 -1 -15 5 -15 12 0
35 -76 26 -90 -3 -6 -2 -10 3 -10 9 0 56 -107 57 -130 0 -8 7 -15 15 -16 31
-2 35 -5 20 -15 -12 -8 -11 -9 6 -7 24 3 54 -18 54 -38 0 -8 7 -14 15 -14 9 0
12 -6 8 -17 -4 -10 -2 -14 5 -9 6 3 15 -2 21 -11 9 -16 12 -16 21 -3 8 12 10
9 10 -13 0 -16 4 -26 10 -22 6 3 10 1 10 -4 0 -6 -8 -11 -17 -12 -15 0 -15 -2
2 -9 36 -15 60 -23 73 -24 7 -1 16 -7 21 -15 6 -9 47 -17 129 -24 105 -9 125
-9 164 6 74 29 119 19 140 -31 13 -30 15 -39 19 -99 2 -24 7 -43 11 -43 4 0 8
-7 8 -15 0 -9 12 -38 26 -66 14 -28 23 -53 20 -56 -3 -3 1 -18 9 -34 8 -15 15
-39 15 -53 0 -14 5 -28 10 -31 6 -4 10 -12 9 -18 -1 -7 0 -19 4 -27 30 -78 71
-234 71 -270 0 -25 3 -47 7 -50 4 -3 10 -36 13 -73 3 -37 8 -72 11 -76 3 -5 8
-33 11 -61 6 -52 5 -52 -40 -95 -25 -23 -46 -50 -46 -58 0 -11 -6 -15 -17 -11
-17 5 -17 5 0 -6 9 -6 15 -15 12 -21 -4 -5 -2 -9 4 -9 6 0 8 -7 5 -14 -3 -8
-1 -21 5 -28 6 -7 25 -31 41 -53 42 -56 72 -90 79 -90 3 0 21 -18 41 -40 19
-22 42 -45 50 -51 30 -24 110 -102 110 -109 0 -8 42 -44 52 -45 8 0 43 -28 91
-72 17 -16 36 -28 43 -28 8 0 14 -4 14 -8 0 -5 20 -19 45 -32 25 -13 45 -26
45 -30 0 -3 19 -17 43 -30 23 -13 44 -26 47 -29 3 -4 23 -19 45 -36 22 -16 42
-32 45 -35 3 -4 21 -15 40 -24 39 -19 104 -75 113 -99 3 -9 25 -22 48 -29 29
-8 62 -32 103 -73 61 -61 89 -80 114 -76 6 1 12 -4 12 -12 0 -13 40 -57 53
-57 11 0 53 -44 71 -75 10 -16 41 -48 68 -70 28 -22 67 -55 88 -74 21 -18 40
-32 43 -30 3 2 22 -18 43 -46 21 -27 43 -55 49 -61 5 -6 30 -35 55 -64 25 -29
59 -67 75 -84 17 -17 43 -49 59 -71 17 -22 44 -53 61 -70 17 -16 57 -68 90
-115 32 -47 62 -86 67 -88 4 -2 8 -10 8 -18 0 -9 4 -13 9 -9 5 3 20 -9 32 -27
13 -18 27 -34 31 -36 4 -2 8 -9 8 -16 0 -7 17 -21 38 -32 20 -11 37 -24 37
-29 0 -6 4 -16 9 -23 4 -7 6 -16 3 -19 -9 -8 25 -41 54 -52 20 -7 27 -17 27
-36 0 -15 5 -30 11 -34 6 -4 9 -15 5 -24 -5 -13 -2 -16 12 -10 13 5 15 3 9 -7
-6 -10 -4 -12 9 -7 10 4 20 7 22 7 2 0 4 13 4 29 0 17 5 33 11 37 8 5 10 -1 7
-20 -3 -14 -1 -26 3 -26 21 0 6 -19 -23 -31 l-33 -13 28 -3 c15 -3 25 -9 22
-14 -4 -5 -1 -17 4 -26 9 -16 10 -15 11 8 0 14 -5 30 -11 36 -8 8 -5 13 10 18
11 3 25 4 30 1 5 -4 12 0 15 6 3 7 4 4 3 -7 -2 -12 -9 -19 -18 -17 -12 2 -15
-4 -12 -22 3 -16 10 -23 19 -19 8 3 14 0 14 -6 0 -6 -8 -11 -17 -11 -15 0 -16
-2 -3 -10 23 -15 30 -12 30 13 1 22 1 22 16 2 9 -12 11 -21 4 -23 -14 -5 -12
-23 3 -20 6 2 26 -7 42 -18 17 -12 41 -25 54 -29 19 -6 23 -4 18 8 -10 25 16
39 39 21 16 -14 17 -15 2 -10 -21 6 -23 -4 -5 -23 10 -11 9 -13 -6 -7 -24 8
-44 -3 -26 -15 9 -5 10 -9 2 -9 -21 0 -1 -40 21 -41 17 -1 17 -2 4 -6 -32 -8
-15 -40 28 -53 24 -7 25 -8 7 -9 -13 -1 -23 -6 -23 -12 0 -7 11 -8 30 -4 24 5
29 4 24 -8 -7 -18 26 -32 40 -16 8 8 8 13 -1 16 -21 8 -15 22 7 16 11 -3 17
-10 13 -16 -3 -6 -1 -7 5 -3 7 4 12 22 11 39 0 18 -3 26 -6 20 -8 -22 -23 -14
-23 13 0 14 4 23 8 20 4 -2 14 -1 22 5 13 7 12 9 -2 9 -10 0 -18 5 -18 10 0 6
-3 9 -7 8 -8 -3 -13 5 -13 17 0 3 9 1 19 -5 14 -7 21 -6 24 3 4 9 6 9 6 0 1
-7 5 -13 10 -13 5 0 7 8 4 18 -4 15 22 50 37 51 3 0 14 3 24 7 22 8 61 -30 49
-49 -4 -6 3 -8 19 -4 18 5 28 2 32 -8 3 -8 12 -12 19 -9 8 3 24 -6 35 -21 13
-16 26 -24 33 -19 8 4 9 3 5 -4 -4 -7 -1 -12 8 -12 9 0 16 -4 16 -10 0 -5 5
-10 12 -10 6 0 38 -27 70 -60 33 -33 63 -60 69 -60 5 0 9 -3 9 -8 0 -12 80
-103 139 -157 102 -94 149 -148 162 -187 8 -26 35 -60 80 -101 36 -35 95 -97
130 -138 35 -40 66 -76 69 -79 18 -16 68 -90 79 -115 7 -16 34 -66 60 -110 26
-44 56 -99 66 -122 11 -24 21 -43 24 -43 3 0 17 -25 31 -55 14 -30 28 -55 33
-55 4 0 7 -15 7 -34 0 -18 7 -39 15 -46 8 -7 15 -23 15 -36 0 -12 4 -25 9 -28
4 -3 11 -20 15 -37 3 -17 17 -44 31 -60 13 -17 29 -48 35 -71 23 -85 -14 -91
-85 -14 -75 80 -125 143 -125 156 0 6 -4 8 -10 5 -5 -3 -10 1 -10 9 0 9 -13
22 -29 30 -15 8 -36 27 -46 42 -9 14 -12 23 -5 19 19 -12 -21 47 -52 76 -15
14 -28 31 -28 37 0 7 -4 12 -10 12 -5 0 -13 12 -16 27 -4 15 -18 39 -31 53
-12 13 -23 30 -23 36 0 18 -66 157 -88 184 -10 14 -27 41 -37 60 -10 18 -24
40 -31 48 -8 7 -17 25 -20 40 -9 39 -53 93 -72 90 -10 -1 -23 1 -31 6 -10 6
-12 5 -7 -2 12 -19 -17 -14 -70 13 -63 33 -86 47 -99 61 -5 6 -37 26 -70 44
-33 17 -64 36 -70 41 -5 5 -15 9 -23 9 -8 0 -39 23 -70 50 -31 28 -63 50 -72
50 -16 0 -70 55 -70 71 0 5 -6 9 -13 9 -18 0 -97 -78 -97 -95 0 -8 -11 -38
-24 -67 -25 -54 -31 -82 -41 -178 -4 -30 -9 -62 -12 -70 -3 -8 -7 -19 -8 -25
0 -5 -4 -17 -7 -25 -3 -8 -13 -58 -23 -110 -18 -102 -42 -196 -56 -220 -9 -15
-52 -98 -99 -190 -30 -59 -90 -152 -106 -165 -6 -5 -41 -55 -76 -110 -36 -55
-72 -106 -81 -114 -9 -7 -17 -20 -17 -27 0 -8 -4 -14 -9 -14 -5 0 -12 -11 -15
-24 -3 -13 -21 -42 -38 -63 -18 -22 -44 -54 -58 -72 -14 -18 -31 -39 -37 -46
-7 -8 -13 -17 -13 -22 0 -7 -42 -57 -100 -119 -11 -12 -20 -27 -20 -33 0 -6
-4 -11 -8 -11 -4 0 -16 -14 -26 -31 -10 -16 -33 -45 -52 -64 -19 -19 -34 -39
-34 -45 0 -5 -18 -27 -40 -49 -22 -21 -37 -41 -34 -44 3 -3 -11 -20 -31 -38
-38 -34 -73 -83 -110 -154 -25 -49 -56 -85 -71 -85 -6 0 -21 -9 -34 -20 -13
-11 -26 -20 -30 -20 -16 0 -80 68 -95 100 -18 40 -28 59 -67 117 -15 23 -28
46 -28 53 0 6 -4 9 -8 6 -5 -3 -15 7 -23 22 -8 15 -20 32 -27 37 -7 6 -18 20
-25 31 -26 47 -122 180 -145 204 -35 36 -112 137 -112 147 0 5 -16 26 -35 47
-19 21 -35 43 -35 48 0 10 -41 70 -55 80 -5 4 -6 10 -3 14 4 3 -4 18 -18 33
-13 14 -27 35 -30 45 -4 11 -19 37 -35 59 -16 22 -29 46 -29 53 0 7 -6 19 -14
26 -7 8 -23 33 -35 55 -11 23 -24 43 -29 45 -4 1 -18 23 -30 48 -26 53 -62
113 -71 120 -3 3 -15 21 -25 40 -37 66 -41 73 -63 98 -13 13 -21 28 -18 32 2
4 -6 16 -18 28 -32 30 -47 50 -47 61 0 6 -14 33 -30 61 -17 28 -30 53 -30 56
0 3 -5 10 -10 17 -6 7 -32 41 -58 77 -26 36 -56 75 -67 86 -11 11 -36 40 -55
64 -19 23 -41 49 -47 56 -7 7 -13 15 -13 19 0 3 -20 31 -44 60 -24 30 -50 68
-57 85 -8 16 -17 30 -21 30 -8 0 -90 105 -139 180 -20 30 -48 66 -61 80 -26
28 -88 125 -88 139 0 5 -6 11 -12 13 -19 7 -15 140 9 303 24 157 34 354 38
750 3 258 10 458 21 610 3 39 7 109 9 158 5 85 4 87 -18 87 -13 0 -42 -9 -65
-20 -22 -11 -45 -20 -49 -20 -25 0 -88 -70 -118 -131 -19 -38 -35 -73 -36 -77
-5 -21 -23 -63 -49 -115 -17 -31 -30 -62 -30 -67 0 -6 -16 -33 -35 -61 -20
-27 -40 -60 -45 -72 -4 -12 -20 -37 -34 -56 -14 -19 -26 -40 -26 -47 0 -7 -4
-14 -8 -16 -4 -1 -21 -21 -37 -43 -77 -103 -121 -151 -184 -198 -55 -41 -64
-44 -177 -61 -147 -22 -277 -50 -369 -81 -78 -25 -248 -78 -400 -123 -227 -67
-247 -74 -670 -234 -293 -111 -267 -102 -470 -168 -88 -28 -168 -56 -178 -61
-18 -10 -197 -65 -247 -76 -14 -4 -34 -12 -45 -18 -11 -7 -38 -18 -60 -25 -22
-7 -44 -16 -50 -20 -5 -4 -26 -11 -45 -15 -19 -4 -55 -16 -80 -27 -25 -11 -81
-29 -125 -40 -44 -11 -92 -27 -108 -35 -34 -17 -204 -73 -223 -73 -8 0 -22 -4
-32 -9 -22 -13 -126 -45 -222 -70 -41 -11 -124 -34 -185 -51 -60 -17 -162 -44
-225 -61 -117 -31 -147 -40 -325 -102 -139 -49 -201 -67 -222 -67 -11 0 -23
-4 -28 -8 -6 -5 -30 -15 -55 -22 -25 -8 -63 -21 -85 -30 -22 -10 -60 -23 -85
-30 -45 -12 -60 -17 -113 -39 -15 -6 -38 -11 -50 -11 -13 0 -33 -7 -46 -16
-12 -9 -39 -19 -59 -21 -21 -3 -49 -11 -64 -19 -15 -8 -34 -14 -43 -14 -9 0
-43 -13 -77 -30 -33 -16 -66 -30 -74 -30 -8 0 -14 -3 -14 -8 0 -8 -20 -19 -83
-47 -20 -10 -37 -21 -37 -26 0 -5 -6 -9 -14 -9 -8 0 -37 -16 -66 -35 -35 -24
-71 -38 -112 -45 -39 -6 -68 -17 -80 -30 -10 -11 -30 -23 -43 -26 -14 -3 -25
-13 -25 -21 0 -19 -25 -43 -45 -43 -8 0 -18 -6 -21 -14 -3 -9 -12 -12 -22 -9
-11 5 -14 2 -9 -10 4 -11 2 -14 -9 -10 -8 3 -14 -1 -14 -10 0 -8 -16 -27 -35
-43 -19 -15 -35 -33 -35 -40 0 -8 -6 -11 -15 -7 -10 3 -15 0 -13 -8 2 -8 -7
-15 -19 -17 l-23 -3 0 -984 c0 -774 3 -984 13 -988 9 -4 9 -6 0 -6 -10 -1 -13
-717 -13 -3526 l0 -3525 323 0 c211 0 317 4 307 10 -13 8 -12 10 3 10 9 0 17
-4 17 -10 0 -6 183 -9 491 -10 332 0 488 3 484 10 -3 6 1 13 10 16 9 4 14 12
11 19 -2 7 4 21 15 31 14 12 16 20 8 30 -7 9 -6 15 3 21 8 4 20 28 28 52 8 24
20 49 27 57 7 7 13 20 13 28 0 9 4 16 8 16 5 0 20 21 33 48 13 26 32 56 42 67
10 11 26 36 35 55 9 19 32 54 52 78 19 24 34 49 32 56 -1 7 9 23 23 36 14 13
25 29 25 37 0 7 12 27 27 43 21 24 35 30 65 30 25 0 37 -4 33 -11 -4 -6 2 -13
14 -16 12 -3 21 -9 21 -13 0 -4 15 -11 32 -14 18 -3 56 -24 84 -45 29 -21 62
-42 75 -46 13 -4 34 -14 47 -21 12 -8 27 -12 32 -9 6 3 10 -1 10 -10 0 -9 6
-15 13 -14 46 6 50 1 43 -53 -4 -29 -11 -57 -17 -63 -5 -5 -9 -17 -9 -27 0
-10 -4 -18 -10 -18 -5 0 -10 -13 -10 -29 0 -16 -7 -34 -14 -41 -20 -16 -48
-103 -40 -123 4 -12 1 -17 -10 -17 -12 0 -16 -10 -16 -35 0 -19 -4 -35 -8 -35
-5 0 -4 -20 2 -45 l11 -45 4966 0 c3969 0 4968 2 4972 12 4 10 6 10 6 1 1 -10
315 -13 1537 -13 l1535 0 -6 23 c-4 12 -13 37 -22 56 -8 18 -16 39 -17 45 -1
6 -5 16 -9 22 -11 19 3 386 18 456 4 18 9 57 10 88 1 30 5 71 8 90 4 19 9 70
11 113 3 43 11 94 18 113 9 25 9 40 2 52 -6 10 -8 26 -4 38 4 11 11 53 14 94
3 41 10 98 14 127 5 29 6 56 1 60 -11 12 10 210 36 343 3 14 7 57 9 95 3 39 9
81 14 95 5 14 6 37 1 54 -5 16 -6 32 -4 36 3 4 7 47 10 96 5 95 14 174 20 184
2 4 7 26 10 51 3 24 8 60 10 79 14 100 18 127 18 145 1 11 4 22 8 25 8 6 31
142 30 178 -1 13 3 21 7 18 6 -3 30 102 48 209 1 6 3 15 4 20 1 6 2 14 1 19
-1 4 3 22 8 40 6 17 12 48 14 70 3 21 9 41 14 45 6 3 13 31 17 61 4 30 14 86
22 125 9 38 20 102 24 140 5 39 14 102 20 140 44 279 61 402 66 485 6 121 7
358 0 368 -3 5 -7 36 -10 69 -11 133 -18 190 -26 238 -12 62 -22 153 -21 182
0 13 -3 23 -7 23 -4 0 -9 15 -10 33 -2 26 -27 139 -59 267 -4 14 -8 35 -9 47
-2 12 -10 37 -18 55 -9 18 -36 96 -61 172 -25 77 -49 144 -54 150 -5 6 -14 29
-21 51 -7 22 -21 52 -32 67 -11 16 -16 32 -13 38 3 5 2 10 -4 10 -6 0 -14 12
-17 28 -4 15 -24 64 -45 109 -21 46 -41 93 -44 105 -4 13 -13 30 -20 38 -7 8
-25 44 -40 80 -39 92 -52 120 -80 165 -14 22 -35 58 -46 80 -12 22 -31 53 -43
70 -11 16 -25 37 -31 46 -5 10 -25 44 -44 76 -19 32 -38 60 -42 63 -3 3 -17
37 -30 75 -12 39 -27 72 -31 73 -4 2 -6 8 -3 12 3 5 -4 25 -15 44 -11 20 -20
39 -21 44 -6 29 -101 226 -111 230 -5 2 -8 8 -8 13 0 13 -36 96 -56 129 -8 14
-24 45 -36 70 -12 25 -24 47 -27 50 -3 3 -17 26 -31 53 -13 26 -29 47 -34 47
-5 0 -6 3 -3 7 4 3 -4 21 -18 38 -13 18 -27 44 -31 59 -3 14 -10 28 -14 31 -5
3 -18 26 -31 53 -12 26 -26 49 -30 52 -11 7 -79 142 -79 156 0 6 -7 17 -16 25
-8 7 -27 36 -41 63 -14 28 -30 57 -37 65 -11 13 -84 143 -108 191 -7 14 -15
27 -18 30 -3 3 -18 26 -33 52 -15 26 -33 53 -40 60 -39 43 -52 76 -71 188 -48
270 -101 522 -116 555 -5 11 -11 29 -13 40 -16 67 -61 205 -68 205 -4 0 -10
13 -14 30 -4 17 -11 30 -16 30 -6 0 -7 9 -4 20 4 14 2 20 -9 20 -9 0 -18 12
-22 28 -13 58 -17 68 -49 107 -23 28 -46 44 -79 54 -25 7 -46 17 -46 21 0 8
-38 22 -90 34 -14 3 -35 14 -47 25 -11 11 -29 21 -39 23 -11 2 -21 5 -24 8
-19 19 -72 50 -85 50 -9 0 -13 5 -10 10 6 9 -29 15 -62 11 -11 -2 -35 15 -68
46 -8 7 -27 13 -44 13 -17 0 -31 4 -31 10 0 5 -7 7 -15 4 -19 -8 -75 17 -75
33 0 7 -9 13 -19 13 -11 0 -33 14 -50 31 -24 24 -35 28 -45 20 -7 -6 -21 -8
-30 -5 -12 5 -17 2 -16 -7 6 -38 0 -58 -15 -52 -13 4 -14 15 -9 49 4 28 3 44
-4 44 -15 0 -28 -23 -15 -27 5 -2 9 -26 7 -53 -1 -28 2 -50 7 -50 5 0 9 5 9
10 0 6 6 10 14 10 19 0 17 -101 -2 -108 -11 -3 -12 0 -3 16 15 27 14 32 -4 26
-11 -5 -13 -19 -8 -72 3 -37 9 -68 12 -70 9 -3 6 -232 -3 -272 -18 -74 -114
-153 -215 -176 -78 -17 -171 -43 -185 -51 -6 -4 -19 -18 -30 -30 -11 -15 -24
-22 -36 -18 -18 6 -177 -40 -194 -56 -6 -5 -18 -9 -27 -9 -10 0 -29 -10 -42
-22 -27 -26 -71 -88 -63 -88 3 0 -19 -25 -49 -56 -30 -31 -55 -60 -55 -64 0
-4 -19 -27 -42 -52 -24 -25 -59 -67 -78 -94 -19 -26 -52 -66 -72 -89 -21 -22
-38 -45 -38 -51 0 -6 -10 -19 -21 -30 -12 -10 -35 -39 -52 -64 -17 -25 -37
-51 -44 -58 -7 -7 -16 -20 -21 -28 -5 -8 -30 -16 -65 -19 -50 -5 -57 -4 -58
12 -2 39 3 78 12 84 6 3 12 23 15 45 3 21 7 48 9 59 2 11 4 33 4 48 1 19 5 26
13 21 7 -5 9 -2 5 8 -7 19 11 38 35 38 10 0 15 5 13 13 -3 7 8 18 25 26 17 7
29 16 26 19 -9 8 15 33 25 26 5 -3 9 4 9 15 0 10 3 27 6 35 5 12 2 15 -12 10
-17 -5 -17 -4 -2 5 18 12 14 51 -6 51 -6 0 -5 4 3 9 19 12 22 38 6 45 -8 3
-11 13 -8 26 3 12 -2 29 -13 42 -11 12 -14 18 -7 15 14 -8 28 9 14 17 -12 8
-11 106 1 106 20 0 41 33 41 63 -1 18 1 26 4 20 7 -18 23 -16 23 2 0 8 -6 15
-14 15 -16 0 -16 31 -1 43 6 4 3 11 -8 18 -12 7 -15 14 -8 22 5 7 7 25 4 42
-5 26 -7 27 -14 10 -7 -17 -8 -17 -8 6 -1 21 -7 28 -31 33 -27 5 -30 9 -30 46
0 22 5 40 10 40 6 0 10 5 10 11 0 6 7 17 15 26 8 8 13 18 11 22 -3 4 11 5 30
3 19 -2 34 -8 34 -13 0 -16 32 -10 46 8 7 10 16 14 21 9 4 -5 3 -11 -4 -13 -7
-2 -9 -11 -6 -20 4 -10 2 -14 -4 -10 -6 4 -10 -6 -11 -23 -1 -26 1 -28 14 -16
8 8 14 24 14 36 0 17 3 19 19 10 11 -5 21 -10 23 -10 4 0 7 28 11 80 1 14 6
28 10 31 12 9 -3 39 -19 39 -8 0 -17 -6 -20 -14 -3 -8 -15 -16 -26 -19 -11 -3
-17 -3 -14 0 3 4 1 12 -4 18 -11 13 -4 45 9 45 4 0 13 16 21 35 9 24 20 35 34
35 17 0 18 2 7 9 -12 7 -12 13 -3 24 7 8 13 26 14 42 2 15 8 30 16 32 8 4 9 9
3 17 -14 16 8 86 26 86 22 0 35 50 35 130 -1 44 5 86 13 103 12 23 11 29 -1
42 -14 13 -13 15 3 16 10 0 13 3 6 6 -7 2 -13 12 -13 21 0 10 -9 23 -20 30
-15 9 -20 23 -20 53 0 31 -6 47 -22 61 -18 15 -19 21 -9 27 9 6 9 10 2 12 -6
2 -14 27 -17 54 -4 28 -16 70 -26 94 -13 28 -18 56 -15 77 3 18 3 35 -1 38 -3
4 -7 16 -9 29 -6 36 -4 239 2 278 5 30 3 38 -18 52 -30 19 -39 13 -62 -41 -13
-28 -27 -45 -43 -49 -30 -7 -37 1 -17 20 16 17 21 62 5 52 -5 -3 -10 1 -10 10
0 9 -4 13 -10 10 -15 -9 -12 11 4 24 7 6 12 23 12 38 -1 16 3 34 8 41 5 8 4
12 -5 12 -10 0 -10 3 -1 12 19 19 14 56 -8 68 -16 9 -18 15 -10 30 6 12 6 21
1 25 -10 6 4 62 20 79 5 6 9 17 9 25 0 9 -6 7 -20 -9 -11 -13 -23 -20 -27 -17
-7 7 34 47 49 47 4 0 6 13 3 28 -4 24 0 31 21 41 23 10 24 13 10 27 -18 17
-21 34 -6 34 5 0 12 11 16 25 3 14 9 25 13 25 3 0 12 14 20 30 10 25 16 29 27
19 8 -7 18 -9 21 -5 4 4 1 12 -7 17 -11 8 -12 12 -3 15 7 3 9 12 6 20 -3 8 0
14 6 14 6 0 11 7 11 15 0 21 42 115 52 115 4 0 8 9 8 20 0 11 4 20 8 20 12 0
76 55 125 107 22 23 48 45 58 48 11 4 19 12 19 20 0 7 11 22 25 33 14 11 25
26 25 33 0 8 9 28 21 44 11 17 24 40 29 53 5 12 14 22 20 22 5 0 10 6 10 13 0
7 9 18 20 25 20 12 45 58 42 75 -1 4 2 7 8 7 5 0 10 7 10 15 0 8 4 15 8 15 4
0 21 22 37 50 17 27 33 50 38 50 4 0 7 9 7 19 0 30 11 52 22 44 7 -4 9 4 6 21
-3 14 -1 26 3 26 5 0 9 11 9 25 0 14 9 34 20 45 11 11 20 27 20 36 0 8 5 12
10 9 7 -4 8 3 4 21 -5 19 -4 25 5 20 7 -5 11 6 11 34 0 23 4 39 8 36 5 -3 14
11 20 31 14 45 8 56 -6 14 -14 -39 -17 -39 -17 -1 0 17 4 30 9 30 4 0 6 9 3
20 -3 13 0 20 9 20 15 0 19 26 5 34 -5 3 -9 22 -9 42 0 26 3 33 9 23 6 -10 9
-2 7 23 -1 20 4 43 11 51 10 13 9 19 -8 36 -26 26 -26 32 -3 24 13 -5 14 -3 5
7 -6 7 -9 19 -6 26 3 8 -1 14 -8 14 -9 1 -8 4 4 11 13 8 15 14 8 23 -6 7 -12
28 -13 47 -2 19 -7 37 -11 40 -4 3 -9 18 -11 32 -3 30 -23 57 -42 57 -17 0
-18 -17 -1 -23 7 -3 6 -6 -5 -6 -9 -1 -20 4 -23 10 -4 6 -13 8 -21 5 -8 -3
-14 -2 -14 3 0 5 -13 14 -29 21 -16 6 -32 18 -35 26 -3 8 -2 12 4 9 5 -3 3 7
-5 22 -8 15 -12 40 -9 56 2 16 -2 43 -11 59 -8 17 -15 37 -15 45 0 8 -4 12 -9
9 -5 -4 -6 9 -1 28 4 20 3 39 -2 44 -5 5 -10 27 -11 48 -1 22 -6 42 -12 46 -6
5 -5 8 3 8 10 0 11 14 6 63 -4 34 -11 71 -17 82 -6 11 -11 38 -12 60 -3 53
-15 105 -26 105 -5 0 -9 6 -9 13 0 7 -9 29 -19 49 -11 19 -17 39 -14 42 4 3 2
6 -3 6 -6 0 -16 17 -23 38 -8 20 -17 39 -20 42 -13 9 -56 85 -53 93 1 4 -4 7
-10 7 -9 0 -8 4 2 10 10 6 11 10 3 10 -7 0 -13 7 -13 16 0 8 -4 12 -10 9 -6
-3 -10 0 -10 7 0 28 -26 69 -51 80 -14 6 -30 21 -35 32 -5 12 -15 20 -22 18
-9 -1 -8 5 3 21 14 22 13 25 -15 45 -18 14 -31 18 -35 11 -4 -6 2 -13 14 -16
12 -3 21 -12 21 -20 0 -13 -3 -13 -15 -3 -12 10 -15 9 -15 -4 0 -11 -7 -16
-17 -14 -12 2 -17 -2 -15 -12 3 -12 1 -13 -9 -2 -18 17 -39 15 -39 -3 0 -8 -6
-14 -12 -13 -7 2 -12 -3 -10 -11 3 -12 1 -12 -14 0 -12 9 -15 9 -10 2 4 -8 1
-13 -9 -13 -9 0 -13 -4 -10 -10 3 -5 -1 -10 -10 -10 -11 0 -15 -5 -11 -16 3
-9 2 -12 -5 -9 -20 13 -89 16 -109 5 -15 -8 -20 -8 -18 1 2 9 -27 12 -105 13
-61 1 -107 -3 -107 -8 0 -6 -6 -1 -14 9 -13 18 -14 18 -25 -4 -7 -13 -10 -25
-7 -29 3 -3 6 -1 6 4 0 5 7 -4 15 -20 19 -35 19 -36 0 -36 -12 0 -13 -5 -7
-17 5 -10 6 -29 1 -43 -4 -14 -8 -18 -8 -10 -1 12 -4 11 -12 -3 -9 -15 -7 -22
10 -33 12 -9 21 -26 21 -41 0 -19 -3 -23 -12 -16 -7 5 -26 10 -43 12 -16 2
-35 7 -42 12 -7 7 -12 6 -15 -2 -3 -9 -22 -2 -59 20 -30 17 -61 36 -69 40 -14
8 -135 33 -225 47 -96 14 -110 19 -113 42 -2 12 -7 22 -11 22 -14 0 6 84 34
143 15 31 39 64 54 73 14 8 46 42 71 75 24 32 49 59 55 59 9 0 55 62 55 74 0
7 50 56 57 56 18 0 94 100 104 137 6 23 17 48 25 54 8 6 14 18 14 26 0 8 18
32 40 54 22 22 40 46 40 53 0 8 9 16 20 19 13 3 20 0 20 -8 0 -13 171 -195
183 -195 12 0 76 -73 71 -81 -3 -5 4 -9 16 -9 11 0 31 -9 43 -21 20 -19 20
-20 2 -13 -19 8 -19 7 -2 -10 9 -9 17 -22 17 -27 0 -5 11 -7 25 -3 19 5 25 2
25 -11 0 -9 4 -13 10 -10 6 3 10 2 10 -4 0 -5 -6 -12 -12 -14 -9 -4 -10 -6 -1
-6 6 -1 18 6 27 14 18 19 26 19 26 0 0 -9 6 -12 15 -9 8 4 15 1 15 -4 0 -6 10
-14 23 -18 26 -8 43 -26 122 -129 33 -44 81 -100 107 -126 25 -26 43 -51 40
-55 -4 -4 -2 -4 5 0 11 6 73 -50 73 -66 0 -11 35 -45 61 -58 17 -9 19 -14 8
-20 -7 -5 -17 -6 -23 -3 -5 3 -6 1 -2 -6 4 -7 15 -11 24 -10 25 4 63 -11 57
-22 -4 -5 -1 -9 5 -9 7 0 9 -8 4 -22 -6 -20 -5 -21 9 -10 18 15 13 73 -8 108
-13 21 -18 45 -16 76 1 15 5 16 27 8 14 -6 29 -8 34 -5 4 3 10 -4 13 -15 7
-28 25 -25 25 5 0 14 -5 25 -10 25 -11 0 1 42 14 51 7 4 7 8 0 10 -6 2 -11 18
-13 34 -2 17 -7 36 -12 42 -5 7 -7 19 -4 27 4 11 1 13 -10 9 -12 -5 -15 -2
-10 11 4 10 1 19 -8 22 -8 4 -15 10 -15 15 0 4 7 6 15 3 15 -6 20 14 16 62 -1
12 5 27 14 34 12 10 15 10 15 -4 0 -17 11 -19 48 -10 12 4 22 14 22 23 0 14 2
14 10 1 8 -13 10 -12 10 3 0 17 25 51 39 53 21 3 41 19 41 32 0 11 3 13 11 5
7 -7 17 -7 33 0 l23 11 -23 19 c-22 17 -23 20 -8 42 11 18 12 25 3 31 -7 4 -9
3 -6 -3 4 -6 0 -14 -9 -17 -22 -8 -26 -8 -19 3 3 5 -4 12 -15 16 -12 4 -20 16
-21 31 -2 43 -4 47 -17 52 -7 2 -10 -2 -6 -12 3 -9 1 -16 -5 -16 -6 0 -11 5
-11 11 0 5 -4 8 -9 4 -5 -3 -13 0 -17 6 -4 8 -3 9 4 5 16 -10 15 17 0 32 -10
10 -10 14 0 21 9 5 8 12 -4 27 -10 13 -14 14 -11 4 3 -10 -2 -16 -14 -16 -11
0 -19 7 -19 16 0 9 -5 21 -11 27 -8 8 -8 17 0 31 14 26 14 32 0 32 -27 0 -54
51 -36 69 8 8 6 11 -8 11 -17 0 -18 2 -5 10 13 9 13 11 0 19 -8 5 -21 6 -29 2
-9 -6 -22 -1 -37 16 -13 14 -27 22 -33 19 -5 -4 -12 -2 -15 2 -3 5 -17 8 -31
7 -14 -2 -23 1 -19 6 3 5 -2 9 -10 9 -9 0 -25 9 -37 21 -11 11 -27 18 -36 15
-11 -5 -13 -2 -9 10 4 10 0 18 -13 21 -12 3 -23 17 -26 33 -5 21 -11 27 -22
23 -9 -4 -19 1 -25 10 -6 12 -17 15 -36 11 -19 -4 -32 0 -41 10 -8 9 -26 16
-41 16 -15 0 -40 10 -56 22 -45 36 -65 52 -80 66 -8 7 -14 10 -14 6 0 -4 -9 5
-21 20 -11 14 -26 26 -32 26 -16 1 -57 36 -57 49 0 6 -7 11 -15 11 -9 0 -18 7
-21 15 -4 8 -10 13 -15 10 -14 -9 -49 19 -49 38 0 13 -5 17 -15 13 -8 -3 -14
-2 -14 2 1 4 1 16 0 27 -1 17 -3 18 -11 5 -5 -8 -10 -10 -10 -4 0 17 -48 23
-61 8 -6 -7 -8 -18 -4 -24 3 -5 1 -10 -4 -10 -15 0 -14 33 1 48 6 6 8 15 4 19
-4 5 -13 0 -20 -10 -12 -16 -16 -16 -47 -2 -19 8 -31 14 -26 15 8 0 -30 40
-38 40 -3 0 -5 -7 -5 -15 0 -8 -7 -15 -16 -15 -8 0 -12 5 -9 10 3 6 0 10 -9
10 -8 0 -16 -6 -19 -12 -3 -10 -8 -10 -21 1 -11 9 -13 17 -6 21 6 4 -5 11 -24
17 -28 9 -34 8 -29 -3 3 -8 1 -14 -5 -14 -5 0 -12 -9 -15 -21 -4 -14 -2 -19 7
-16 9 4 14 -3 14 -20 0 -14 7 -30 16 -35 9 -5 14 -13 11 -19 -4 -5 -1 -9 4 -9
6 0 11 -7 11 -14 0 -8 10 -26 23 -40 42 -47 57 -66 57 -76 0 -6 4 -10 10 -10
5 0 13 -12 16 -27 4 -15 15 -36 25 -47 31 -33 60 -137 55 -192 -11 -105 -34
-135 -50 -67 -5 21 -20 53 -33 71 -27 36 -93 82 -118 82 -8 0 -15 7 -15 15 0
13 -19 19 -57 18 -7 -1 -10 3 -7 8 7 12 -39 29 -77 29 -16 0 -29 4 -29 10 0 5
-6 7 -14 4 -8 -3 -29 3 -48 12 -18 10 -44 19 -58 21 -14 2 -36 8 -50 13 -14 6
-37 11 -52 12 -16 1 -28 5 -28 9 0 4 -12 10 -26 13 -15 4 -23 10 -20 13 4 4
-12 14 -35 22 -29 11 -47 27 -60 50 -17 32 -59 79 -59 66 0 -4 -7 1 -16 9 -17
18 -34 21 -34 7 0 -6 -13 2 -28 17 -15 15 -27 30 -25 34 5 11 -40 38 -63 38
-11 0 -24 3 -28 8 -4 4 -13 7 -19 7 -7 1 -11 6 -10 13 2 7 -3 13 -10 13 -20 3
-50 5 -76 7 -20 2 -21 4 -11 17 11 13 10 14 -3 10 -14 -6 -31 21 -25 41 4 15
-13 54 -23 54 -5 0 -9 10 -8 23 0 21 1 21 9 2 8 -20 9 -20 9 1 1 24 -33 59
-48 49 -7 -4 -11 6 -11 26 0 31 1 32 15 13 8 -10 15 -15 15 -11 0 12 -21 51
-33 58 -6 4 -6 13 1 25 9 15 6 22 -11 32 l-22 13 23 -6 c21 -6 22 -4 16 22 -4
15 -12 32 -18 36 -8 6 -7 10 2 14 15 6 16 59 1 69 -6 3 -8 17 -5 29 7 27 -4
38 -24 24 -10 -6 -11 -9 -2 -9 6 0 12 -4 12 -10 0 -5 -11 -10 -25 -10 -14 0
-25 -4 -25 -10 0 -20 -16 -10 -17 11 -1 13 5 23 18 26 20 6 26 28 9 38 -12 7
-14 26 -2 24 26 -4 31 3 25 34 -3 17 -11 35 -17 40 -8 5 -7 10 3 16 12 8 12
13 3 24 -9 10 -10 22 -2 41 5 14 6 26 2 26 -5 0 -7 14 -6 30 1 17 -3 30 -9 30
-7 0 -8 3 -1 10 12 12 6 72 -7 64 -9 -5 -11 2 -14 79 -1 34 4 53 17 67 10 10
18 24 18 29 0 22 53 71 76 71 13 0 24 4 24 8 0 4 15 8 33 9 19 1 55 4 80 7 40
6 47 4 47 -10 0 -12 3 -14 13 -6 7 5 21 6 32 2 27 -11 156 -148 177 -188 10
-18 22 -31 27 -28 5 3 16 -6 25 -19 9 -14 21 -23 26 -20 6 4 10 2 10 -4 0 -5
13 -12 29 -16 16 -3 37 -15 47 -26 9 -10 25 -19 35 -19 10 0 26 -8 36 -18 10
-10 35 -29 55 -42 21 -14 38 -31 38 -37 0 -7 6 -13 13 -13 11 0 53 -58 50 -70
-1 -3 9 -19 23 -37 13 -17 24 -39 24 -48 0 -18 33 -67 73 -105 15 -15 27 -32
27 -39 0 -6 5 -12 10 -12 14 -2 23 -5 41 -13 9 -4 29 -5 44 -2 16 3 36 0 44
-7 12 -10 13 -9 6 2 -6 11 -4 13 11 6 29 -12 315 -14 344 -2 33 14 36 14 65
16 15 1 25 7 25 16 0 8 5 15 11 15 6 0 25 11 42 23 32 24 213 75 293 83 23 2
57 11 76 19 20 8 38 12 40 9 3 -2 11 2 18 11 7 8 19 15 27 15 9 0 13 6 9 15
-3 8 -1 15 4 15 6 0 10 12 10 28 1 26 29 89 30 65 0 -7 4 -13 10 -13 6 0 6 9
0 25 -10 26 0 68 20 80 6 4 8 15 5 26 -5 13 -2 19 10 19 11 0 15 6 10 19 -3
12 0 21 11 25 9 4 14 13 10 21 -4 10 1 15 15 15 11 0 17 5 14 10 -3 6 -2 10 2
10 18 0 115 -38 126 -49 15 -15 30 -14 21 2 -5 9 -4 9 6 0 10 -9 16 -9 26 2
17 17 19 59 2 49 -8 -5 -9 -2 -5 11 6 14 3 17 -18 13 -14 -3 -25 -1 -25 3 0 5
-12 9 -26 9 -34 0 -101 56 -126 104 -11 21 -32 50 -47 65 -15 15 -26 32 -23
39 2 7 -4 12 -14 12 -10 0 -29 11 -43 24 -16 15 -88 47 -181 80 -196 69 -230
84 -230 97 0 5 -4 8 -10 4 -29 -18 -39 164 -11 197 39 44 60 64 85 82 43 31
52 40 75 73 12 17 31 33 44 35 26 4 90 -15 112 -34 44 -37 135 -126 135 -133
0 -4 19 -30 43 -58 50 -59 97 -141 97 -168 0 -10 6 -22 14 -26 8 -4 21 -25 30
-46 8 -21 20 -36 26 -32 6 3 10 -3 10 -15 0 -12 5 -18 10 -15 6 3 10 2 10 -4
0 -6 14 -17 30 -26 23 -12 30 -12 30 -3 0 10 2 10 9 -1 11 -17 23 2 15 24 -5
13 -8 14 -15 3 -7 -10 -9 -9 -9 3 0 9 7 20 16 23 8 3 13 10 9 15 -3 5 -1 12 4
16 6 3 8 12 4 20 -3 8 0 15 7 15 7 0 9 8 5 19 -3 10 -6 61 -7 112 -1 52 -6
105 -11 119 -10 27 -16 230 -6 230 3 0 4 13 1 30 -4 25 -7 28 -23 19 -15 -7
-21 -6 -25 6 -3 8 -9 13 -13 11 -4 -3 -8 5 -8 16 -1 12 -8 25 -15 29 -10 7 -9
9 5 9 19 0 23 15 6 26 -8 4 -7 9 2 15 11 8 11 11 -3 20 -10 5 -18 19 -18 29 0
11 -5 20 -11 20 -5 0 -7 5 -4 10 3 6 -3 10 -14 10 -12 0 -21 5 -21 11 0 6 -13
28 -30 49 -16 21 -30 47 -30 57 0 25 -28 83 -41 83 -5 0 -17 8 -27 18 -9 9
-36 23 -60 30 -23 7 -42 17 -42 22 0 6 -5 10 -11 10 -6 0 -23 8 -37 19 -15 10
-40 21 -56 25 -16 4 -67 26 -115 49 -47 23 -93 42 -101 42 -29 2 -155 16 -175
20 -11 2 -29 12 -40 23 -28 25 -98 52 -153 57 -26 3 -76 7 -112 11 -99 9 -130
22 -130 56 0 15 -4 28 -10 28 -5 0 -10 -6 -10 -12 0 -10 -3 -9 -9 1 -6 9 -10
10 -16 2 -5 -9 -10 -9 -21 0 -11 9 -14 8 -14 -5 0 -9 -4 -16 -10 -16 -5 0 -10
5 -10 10 0 30 -18 63 -30 55 -4 -3 -11 1 -13 7 -4 10 -6 10 -6 0 -1 -9 -8 -8
-27 4 -20 14 -27 15 -33 5 -6 -9 -10 -8 -15 5 -6 15 -9 16 -15 5 -5 -7 -20
-15 -34 -16 -14 -2 -30 -6 -36 -9 -5 -3 -12 7 -16 24 -4 16 -12 33 -19 37 -7
5 -15 16 -19 26 -8 21 -36 23 -43 2 -7 -17 -34 -21 -34 -5 0 6 -7 10 -17 10
-9 0 -13 3 -10 7 12 12 -23 41 -44 36 -14 -4 -19 0 -19 16 0 23 -15 29 -23 9
-3 -7 -6 -3 -6 10 -1 12 -5 22 -11 22 -5 0 -10 8 -10 18 0 15 -10 17 -80 17
-62 0 -80 3 -80 14 0 12 -3 12 -17 -1 -19 -15 -53 -13 -53 3 0 5 -11 9 -24 9
-13 0 -30 7 -37 17 -13 15 -12 15 9 4 30 -16 41 -6 17 17 -10 9 -15 12 -12 6
4 -7 -4 -11 -22 -10 -16 1 -27 4 -24 9 2 4 -1 7 -6 7 -6 0 -11 8 -11 18 0 24
-66 28 -92 5 -18 -16 -18 -16 -12 0 9 24 -5 21 -27 -5 -16 -17 -19 -18 -19 -5
0 11 -8 17 -24 17 -13 0 -29 7 -36 15 -7 8 -19 15 -26 15 -17 0 -18 17 -2 22
9 3 8 9 -4 21 -9 9 -19 17 -23 17 -4 0 -13 6 -21 14 -10 11 -11 15 -1 19 9 4
9 7 -1 18 -11 12 -14 12 -22 -1 -8 -13 -10 -13 -10 2 0 9 -6 18 -12 21 -10 3
-10 7 0 19 10 13 8 15 -15 11 -21 -3 -24 -2 -14 5 11 8 12 14 4 24 -6 7 -13
26 -17 42 -4 17 -15 36 -24 43 -16 12 -16 12 1 13 9 0 17 8 17 17 0 13 -3 14
-12 5 -15 -15 -48 -16 -48 -2 0 6 4 10 9 10 13 0 9 83 -4 92 -6 5 -3 8 7 8 9
0 19 -6 21 -12 3 -8 6 -6 6 5 1 10 -6 20 -14 23 -10 4 -12 10 -7 18 15 18 12
74 -4 80 -16 6 -19 36 -4 36 6 0 10 -4 10 -10 0 -5 5 -10 10 -10 6 0 10 9 10
21 0 11 -4 18 -9 15 -5 -3 -14 1 -21 9 -18 22 5 47 36 39 15 -4 24 -2 24 5 0
6 11 16 25 21 30 11 34 30 5 23 -11 -3 -20 0 -20 6 0 12 11 14 47 12 12 -1 26
6 32 16 10 17 10 17 11 1 0 -24 12 -23 33 2 9 11 24 20 33 20 17 0 45 24 43
37 -3 19 2 27 10 14 8 -12 16 -10 51 8 31 16 45 19 60 11 14 -8 20 -8 20 0 0
6 5 8 10 5 6 -3 10 -4 10 0 0 3 -10 10 -22 15 -20 8 -18 9 11 6 21 -3 39 1 48
10 8 8 24 14 36 13 21 0 21 -1 -3 -10 -13 -6 -26 -11 -27 -13 -6 -6 9 -36 18
-36 4 0 6 7 3 15 -4 10 0 15 11 15 10 0 28 11 41 26 14 14 24 19 24 12 0 -10
2 -10 9 1 5 7 14 10 20 7 6 -4 11 -3 11 2 0 6 7 13 16 16 8 3 12 2 9 -4 -3 -6
1 -10 9 -10 10 0 13 6 10 15 -5 11 -2 13 12 8 11 -4 15 -3 10 5 -5 8 9 10 49
6 41 -4 55 -2 56 8 0 7 4 4 9 -7 7 -16 9 -16 9 -4 2 33 78 54 123 35 9 -4 22
-5 28 -1 5 3 10 -2 10 -12 0 -12 8 -18 24 -18 16 0 25 5 24 15 -1 8 0 27 0 43
2 27 3 27 55 22 28 -2 70 -7 92 -10 28 -4 50 -1 76 13 27 14 52 18 98 15 60
-4 107 9 96 27 -3 4 3 6 12 4 12 -3 24 5 34 22 l16 27 14 -29 c10 -20 23 -30
41 -32 19 -2 25 -8 21 -18 -4 -10 2 -14 21 -14 14 0 26 -4 26 -10 0 -5 9 -10
20 -10 10 0 23 -6 27 -13 10 -18 131 -58 138 -47 3 4 0 10 -7 12 -7 3 -2 13
13 26 13 13 25 18 27 12 5 -14 42 -13 42 1 0 7 11 4 26 -6 15 -9 24 -12 20 -7
-3 6 -2 13 4 17 5 3 14 -4 19 -17 5 -13 20 -35 34 -50 14 -15 23 -29 20 -32
-3 -2 7 -12 21 -21 14 -10 23 -22 19 -29 -3 -6 -3 -8 1 -4 10 8 46 -22 46 -39
0 -7 9 -13 20 -13 13 0 20 -7 20 -20 0 -11 6 -20 13 -20 6 0 27 -22 46 -49 18
-28 40 -52 48 -55 8 -3 12 -10 8 -15 -3 -5 3 -16 13 -23 19 -13 46 -55 47 -73
0 -5 8 -9 18 -7 9 2 17 -2 17 -8 0 -6 22 -32 49 -58 45 -44 88 -108 83 -124
-1 -5 5 -8 13 -8 8 0 25 -11 39 -25 14 -14 30 -25 35 -25 6 0 17 -16 25 -35 8
-19 22 -35 30 -35 16 0 20 -10 17 -42 -1 -9 4 -20 10 -24 9 -5 10 -2 5 11 -5
14 -3 15 6 7 7 -5 30 -13 51 -17 21 -4 37 -13 37 -21 0 -21 20 -17 21 4 0 15
1 14 8 -3 7 -17 8 -17 15 8 3 15 11 27 16 27 13 0 13 -7 -2 -33 -10 -20 -10
-21 5 -8 10 7 17 20 17 27 0 20 17 17 29 -3 6 -10 11 -14 11 -9 0 5 11 -1 24
-13 14 -13 29 -20 35 -16 12 7 14 -5 5 -29 -3 -9 -12 -16 -20 -16 -8 0 -14 -6
-14 -14 0 -8 -5 -18 -12 -22 -6 -4 -8 -3 -5 3 4 6 1 16 -7 22 -12 10 -14 5
-13 -25 2 -28 7 -38 21 -40 29 -4 107 -94 100 -116 -3 -10 -1 -18 3 -18 5 0
14 20 21 45 9 33 16 43 27 39 8 -4 15 -1 15 5 0 9 -8 13 -30 13 -3 1 -18 -2
-35 -6 -22 -5 -26 -4 -15 4 10 6 11 10 3 10 -7 0 -13 8 -13 18 1 16 1 16 14 0
7 -10 19 -18 26 -18 10 0 10 3 0 15 -7 8 -9 15 -4 15 5 0 2 5 -6 10 -13 9 -12
13 5 27 16 13 17 15 3 10 -12 -4 -18 -1 -18 8 0 8 -6 12 -13 9 -8 -3 -13 5
-15 20 -3 39 51 46 61 8 3 -12 5 -10 6 6 0 12 6 22 12 22 5 0 7 5 3 11 -13 22
-22 79 -12 79 6 0 5 6 -2 15 -7 8 -9 15 -4 15 17 0 34 52 23 71 -9 19 1 78 21
118 4 9 13 28 21 44 7 15 18 27 25 27 22 0 21 24 -3 48 -13 13 -27 21 -30 18
-3 -3 -13 2 -22 12 -19 20 -39 32 -100 63 -25 13 -40 24 -33 27 7 2 12 8 12
13 0 6 -4 7 -10 4 -5 -3 -26 10 -45 30 -36 35 -65 46 -65 23 0 -9 -3 -9 -9 1
-5 8 -18 12 -30 8 -15 -3 -27 3 -43 25 -13 17 -33 40 -45 51 -13 11 -23 27
-23 34 0 7 -4 13 -9 13 -4 0 -14 20 -21 45 -7 24 -16 42 -21 40 -4 -3 -11 10
-15 30 -4 23 -12 35 -23 35 -9 0 -24 17 -33 38 -10 21 -26 47 -36 57 -24 27
-32 49 -22 65 7 11 15 10 43 -3 44 -21 47 -21 64 1 10 12 16 14 19 5 3 -7 12
-13 20 -13 9 0 12 -4 9 -10 -3 -5 0 -8 7 -5 14 5 48 -56 51 -93 0 -12 4 -22 8
-22 4 0 9 -13 12 -29 4 -20 14 -31 32 -35 16 -4 23 -11 19 -19 -5 -8 -4 -9 3
-2 6 6 13 24 17 40 4 20 3 25 -3 16 -7 -11 -11 -10 -20 7 -15 27 -14 37 2 24
6 -6 15 -11 20 -11 4 -1 8 -1 10 -2 1 0 16 -2 34 -4 25 -3 34 1 38 17 4 11 4
22 1 25 -3 4 -6 1 -6 -5 0 -7 -7 -12 -16 -12 -14 0 -14 1 0 16 19 18 19 24 6
44 -8 13 -11 13 -19 1 -11 -17 -32 -5 -24 15 4 12 1 13 -22 4 -33 -12 -45 -13
-25 0 12 8 11 12 -8 30 -12 11 -22 25 -22 30 0 6 -8 10 -18 10 -11 0 -27 9
-37 20 -10 11 -14 20 -9 20 5 0 2 5 -6 10 -13 9 -13 11 0 20 12 8 11 10 -8 10
-13 0 -20 4 -17 10 3 6 1 10 -4 10 -6 0 -11 9 -11 19 0 10 -7 22 -16 25 -9 3
-14 13 -11 21 7 17 -20 27 -78 29 -29 2 -41 7 -43 19 -3 15 -20 22 -44 18 -5
0 -8 10 -8 23 0 25 -22 40 -37 25 -5 -5 -9 2 -8 18 0 16 -5 28 -12 28 -7 0
-13 5 -14 10 0 10 -31 31 -37 26 -2 -1 -10 6 -18 16 -13 17 -13 17 -14 -1 0
-12 -5 -16 -14 -13 -12 5 -13 1 -6 -16 4 -12 13 -21 19 -19 6 1 11 -4 11 -12
0 -7 9 -16 21 -19 18 -5 18 -3 7 11 -12 15 -11 16 5 3 18 -15 23 -41 7 -41 -5
0 -10 -7 -10 -16 0 -8 4 -13 9 -9 15 9 23 -13 12 -32 -10 -17 -10 -16 -11 2
-1 19 -1 19 -14 3 -19 -25 -46 -23 -46 4 0 12 -3 18 -7 14 -15 -15 -10 -36 13
-51 26 -17 30 -36 13 -63 -8 -12 -20 -17 -34 -14 -13 2 -26 -1 -29 -7 -4 -6
-14 -11 -22 -11 -8 0 -12 5 -9 10 3 6 2 10 -3 10 -17 0 -82 72 -97 107 -8 20
-27 48 -41 62 -15 14 -38 41 -52 59 -13 18 -40 40 -59 49 -52 24 -89 113 -48
113 8 0 21 7 29 16 15 14 17 13 24 -7 7 -17 11 -19 17 -9 5 8 2 16 -9 22 -9 5
-16 13 -16 19 0 10 -10 24 -42 59 -10 11 -20 31 -24 45 -3 14 -13 25 -21 25
-8 0 -17 9 -20 20 -3 11 -10 20 -15 20 -5 0 -7 4 -3 9 3 6 -4 15 -15 21 -11 6
-18 15 -16 19 7 11 -32 46 -41 37 -4 -4 -2 -20 4 -36 7 -18 7 -30 2 -30 -28 0
-81 34 -131 86 -50 51 -63 75 -67 119 -1 6 -6 3 -11 -5 -8 -13 -10 -12 -11 5
-1 11 -2 26 -2 33 1 10 -7 12 -25 9 -35 -7 -79 15 -130 63 -27 27 -39 45 -35
58 2 10 -3 26 -12 35 -8 9 -15 18 -14 19 1 2 -1 13 -5 25 -5 14 -12 20 -22 16
-9 -3 -14 0 -12 8 2 10 -8 14 -35 14 -26 0 -36 -4 -32 -12 2 -7 -2 -13 -9 -13
-8 0 -22 -12 -32 -27 l-18 -28 -12 30 c-9 23 -12 25 -15 11 -4 -17 -7 -17 -36
8 -37 31 -97 58 -108 48 -5 -4 -5 -2 -1 5 3 7 -2 14 -14 18 -11 4 -18 10 -15
14 2 5 -4 16 -15 26 -19 17 -18 18 6 44 l25 26 17 -20 c9 -12 25 -24 35 -28
12 -4 17 -15 15 -29 -2 -19 2 -24 30 -26 19 -2 32 1 32 8 0 6 -4 9 -9 5 -9 -5
-27 13 -19 20 7 7 88 -17 88 -26 0 -5 15 -9 33 -9 22 0 28 -3 18 -9 -8 -5 -9
-11 -3 -15 9 -6 27 21 24 36 -3 14 22 3 38 -16 15 -17 17 -17 23 -3 3 9 -1 18
-10 21 -8 4 -13 13 -9 21 3 8 2 15 -3 15 -5 0 -8 18 -8 40 0 37 2 40 21 34 18
-6 19 -5 7 10 -7 9 -20 16 -27 16 -8 0 -14 4 -14 8 0 11 -56 43 -63 36 -3 -4
-9 5 -12 19 -4 14 -13 24 -22 23 -9 0 -18 5 -21 13 -3 10 0 12 12 8 9 -4 16
-2 16 2 0 21 -31 20 -40 -2 -5 -12 -9 -17 -9 -11 -1 16 -39 25 -45 10 -3 -7
-5 -6 -5 3 -1 10 -4 11 -14 3 -15 -13 -80 14 -71 29 7 12 -33 25 -83 28 -7 1
-13 8 -13 16 0 9 -6 12 -15 9 -11 -5 -13 -2 -9 10 4 11 1 16 -10 16 -9 0 -21
12 -26 26 -6 14 -14 22 -20 19 -5 -3 -7 0 -4 8 4 10 -2 15 -18 15 -40 1 -73 7
-78 14 -3 3 -19 8 -37 11 -18 3 -49 21 -70 41 -21 20 -44 36 -51 36 -7 0 -15
6 -18 14 -4 10 -19 13 -47 12 -23 -1 -48 2 -55 8 -8 6 -17 5 -24 -2 -6 -6 -18
-8 -27 -5 -38 12 -61 28 -57 38 7 19 -33 38 -50 24 -11 -9 -14 -9 -14 1 0 10
-3 10 -15 0 -9 -7 -19 -10 -22 -6 -4 4 -2 10 4 14 6 4 -14 8 -44 9 -32 1 -74
11 -100 24 -24 12 -57 22 -72 24 -15 1 -33 5 -40 9 -7 5 -15 6 -18 3 -3 -3
-16 -2 -30 4 -13 5 -64 13 -113 19 -49 5 -95 12 -102 15 -8 3 -17 3 -21 -1z
m1208 -454 c3 -5 1 -10 -4 -10 -6 0 -11 5 -11 10 0 6 2 10 4 10 3 0 8 -4 11
-10z m-505 -534 c0 -11 -19 -15 -25 -6 -3 5 1 10 9 10 9 0 16 -2 16 -4z m37
-78 c-3 -8 -6 -5 -6 6 -1 11 2 17 5 13 3 -3 4 -12 1 -19z m1369 -235 c-11 -11
-17 4 -9 23 7 18 8 18 11 1 2 -10 1 -21 -2 -24z m-202 -26 c17 4 35 -5 64 -31
26 -24 43 -33 47 -26 5 8 11 8 17 2 6 -6 17 -8 24 -5 8 3 14 1 14 -4 0 -4 12
-21 26 -36 17 -19 24 -35 21 -49 -3 -11 -1 -32 4 -46 6 -16 6 -29 0 -35 -7 -7
-5 -15 7 -23 10 -8 12 -13 5 -14 -20 0 -15 -20 5 -21 9 0 12 -3 5 -5 -20 -9
-92 16 -114 39 -17 18 -20 30 -14 70 5 43 4 47 -15 47 -11 0 -20 4 -20 10 0
17 -80 69 -97 63 -11 -4 -14 -3 -9 6 5 7 0 21 -10 32 -16 17 -16 22 -4 29 8 5
16 6 18 1 1 -4 13 -6 26 -4z m16 -277 c0 -5 -2 -10 -4 -10 -3 0 -8 5 -11 10
-3 6 -1 10 4 10 6 0 11 -4 11 -10z m1190 -504 c0 -2 -7 -6 -15 -10 -8 -3 -15
-1 -15 4 0 6 7 10 15 10 8 0 15 -2 15 -4z m25 -36 c3 -5 -1 -10 -10 -10 -9 0
-13 5 -10 10 3 6 8 10 10 10 2 0 7 -4 10 -10z m142 -1092 c-3 -7 -5 -2 -5 12
0 14 2 19 5 13 2 -7 2 -19 0 -25z m-2393 -84 c3 -8 1 -14 -4 -14 -6 0 -10 5
-10 11 0 6 -9 9 -20 6 -12 -3 -20 0 -20 8 0 17 47 7 54 -11z m-8 -42 c-7 -7
-46 9 -46 18 0 5 11 4 25 -2 14 -6 23 -13 21 -16z m719 -282 c3 -5 1 -10 -4
-10 -6 0 -11 5 -11 10 0 6 2 10 4 10 3 0 8 -4 11 -10z m1145 -1530 c0 -14 -31
-20 -51 -10 -22 13 -26 25 -4 16 8 -3 15 -1 15 3 0 5 9 7 20 4 11 -3 20 -9 20
-13z m20 -24 c0 -3 -4 -8 -10 -11 -5 -3 -10 -1 -10 4 0 6 5 11 10 11 6 0 10
-2 10 -4z m-40 -126 c0 -11 0 -23 1 -27 1 -15 -19 -13 -35 2 -20 21 -21 39 -1
31 8 -3 15 -1 15 4 0 6 5 10 10 10 6 0 10 -9 10 -20z m-4187 -30 c17 -28 16
-50 -2 -50 -9 0 -31 45 -31 65 0 24 14 17 33 -15z m2047 -574 c0 -3 -4 -8 -10
-11 -5 -3 -10 -1 -10 4 0 6 5 11 10 11 6 0 10 -2 10 -4z m-140 -616 c10 0 21
6 23 13 3 6 6 2 6 -9 1 -15 10 -24 29 -30 40 -11 82 -13 76 -3 -3 5 11 9 30 9
37 0 66 -21 66 -48 0 -15 -2 -15 -10 -2 -8 12 -10 9 -10 -12 0 -25 9 -33 33
-29 4 0 7 -6 7 -15 0 -11 -6 -14 -21 -9 -19 6 -20 5 -9 -14 10 -19 8 -22 -20
-27 -36 -8 -48 -22 -29 -36 10 -7 7 -7 -8 -3 -16 4 -22 2 -20 -7 2 -7 2 -10 0
-5 -7 12 -16 8 -45 -17 -27 -23 -38 -56 -18 -56 6 0 9 3 9 8 -3 18 2 30 16 36
20 7 19 1 -2 -20 -16 -16 -16 -17 -1 -12 9 4 21 1 28 -6 8 -10 7 -15 -5 -20
-9 -3 -13 -2 -10 4 3 6 -1 10 -9 10 -9 0 -16 -4 -16 -10 0 -5 -7 -6 -17 -3
-10 4 -14 2 -10 -4 5 -7 0 -9 -14 -6 -12 3 -18 11 -15 19 3 8 2 14 -2 14 -5 0
-13 12 -20 28 -8 18 -10 20 -6 5 6 -25 4 -26 -20 -17 -9 3 -16 17 -16 30 0 21
-4 24 -25 18 -25 -6 -35 8 -15 21 6 3 10 13 10 22 0 9 -3 13 -6 10 -9 -9 -64
32 -61 45 1 7 -6 14 -15 16 -12 2 -18 -3 -19 -15 0 -11 -3 -13 -6 -5 -7 19 5
62 18 62 8 0 7 -5 -1 -15 -10 -12 -9 -15 7 -15 28 0 48 29 48 68 -1 22 3 31
12 28 7 -3 13 -1 13 4 0 11 44 18 48 8 2 -5 12 -8 22 -8z m-115 -60 c3 -5 1
-10 -4 -10 -6 0 -11 5 -11 10 0 6 2 10 4 10 3 0 8 -4 11 -10z m25 -114 c0 -3
-4 -8 -10 -11 -5 -3 -10 -1 -10 4 0 6 5 11 10 11 6 0 10 -2 10 -4z m-267 -26
c-3 -10 -14 -22 -24 -25 -10 -4 -19 -14 -19 -23 0 -12 7 -9 30 13 16 16 32 26
34 24 11 -10 -34 -46 -77 -62 -14 -5 -16 -2 -11 21 5 24 2 22 -20 -12 -14 -22
-22 -44 -19 -49 4 -6 -12 -8 -42 -5 -29 4 -42 2 -34 -3 8 -5 12 -9 9 -10 -3 0
-13 -2 -24 -4 -10 -2 -28 -13 -40 -24 -12 -12 -29 -21 -38 -21 -9 0 -18 -9
-21 -19 -4 -15 -10 -18 -28 -14 -21 6 -23 5 -10 -10 12 -15 10 -17 -15 -18
-16 0 -23 -3 -16 -6 6 -2 12 -9 12 -14 0 -6 -4 -8 -9 -4 -5 3 -12 -3 -16 -14
-9 -29 -41 -33 -53 -6 -11 23 -7 35 11 35 5 0 7 -9 4 -20 -3 -12 0 -20 8 -20
16 0 26 25 19 45 -4 8 -1 15 5 15 6 0 11 9 11 20 0 11 -4 20 -10 20 -5 0 -10
-7 -10 -15 0 -8 -3 -15 -8 -15 -4 0 -6 20 -4 45 4 41 6 45 30 45 l26 0 -22 15
c-21 15 -21 17 -5 41 10 16 23 24 34 21 11 -3 19 2 22 14 7 24 74 27 83 4 5
-12 10 -13 20 -4 8 6 14 8 14 3 0 -5 4 -3 9 4 6 10 18 11 49 4 32 -8 44 -7 53
4 7 8 20 12 30 9 11 -4 25 2 36 14 23 25 32 26 26 1z m-428 -199 c-3 -6 -11
-11 -17 -11 -6 0 -6 6 2 15 14 17 26 13 15 -4z m3210 -222 c-4 -5 -13 -9 -21
-9 -12 0 -12 2 -2 14 14 15 32 11 23 -5z m-2759 -180 c3 -5 -2 -9 -11 -9 -9 0
-14 -4 -11 -9 7 -10 -24 -25 -33 -16 -3 3 1 10 8 15 8 4 11 15 8 23 -4 11 0
13 14 10 11 -3 22 -9 25 -14z m45 -20 c-11 -10 -28 -19 -38 -18 -11 0 -13 3
-5 6 6 2 12 11 12 19 0 8 6 11 15 8 8 -4 15 -1 15 6 0 6 5 8 11 5 7 -5 3 -14
-10 -26z m1999 -69 c0 -5 -2 -10 -4 -10 -3 0 -8 5 -11 10 -3 6 -1 10 4 10 6 0
11 -4 11 -10z m-130 -451 c0 -14 -17 -10 -23 5 -4 10 -1 13 9 9 7 -3 14 -9 14
-14z m-450 -691 c123 -21 260 -74 260 -100 0 -6 6 -8 13 -5 14 5 41 -39 51
-85 5 -21 2 -28 -14 -33 -11 -3 -20 -10 -20 -14 0 -5 -32 -8 -71 -7 -39 0 -73
-2 -75 -5 -2 -4 -21 2 -41 12 -21 11 -51 19 -68 18 -16 -1 -48 3 -70 9 -22 6
-71 12 -110 13 -38 2 -74 5 -79 7 -4 3 -26 6 -48 8 -47 3 -108 41 -100 63 4
10 1 12 -8 6 -7 -5 -5 3 6 17 10 14 21 25 22 23 6 -5 42 34 42 44 0 14 36 23
120 30 114 9 131 9 190 -1z m1058 -849 c14 8 17 3 20 -25 1 -19 9 -45 17 -57
15 -24 15 -34 -4 -90 -7 -21 -11 -50 -8 -65 3 -14 1 -37 -4 -50 -6 -15 -5 -21
1 -17 18 11 10 -7 -12 -26 l-21 -19 24 -1 c22 0 23 -1 4 -9 -11 -5 -14 -9 -7
-9 7 -1 12 -14 12 -32 0 -17 -4 -28 -10 -24 -5 3 -10 0 -10 -8 0 -20 -47 -59
-54 -44 -4 7 -4 0 -3 -15 4 -25 2 -26 -17 -15 -22 12 -27 14 -48 16 -9 1 -8 4
2 11 10 7 11 10 3 11 -7 1 -19 2 -25 3 -7 1 -12 9 -10 19 4 21 -11 22 -28 2
-7 -8 -18 -15 -24 -15 -6 0 -3 7 7 14 21 16 22 30 2 22 -17 -6 -21 9 -5 19 8
5 7 11 -1 21 -10 12 -9 13 4 8 14 -5 15 -1 7 27 -5 18 -7 43 -4 56 5 17 2 23
-10 23 -9 0 -16 4 -16 10 0 5 6 7 13 4 8 -3 20 2 27 11 11 14 11 16 -1 13 -9
-2 -14 6 -14 22 0 14 -4 31 -8 38 -5 7 -4 12 2 12 6 0 13 -11 17 -25 4 -17 13
-25 27 -25 11 0 17 3 14 7 -4 3 -2 12 4 20 7 7 13 23 14 36 4 41 5 42 15 27 8
-12 10 -10 10 10 0 23 10 35 49 60 13 7 13 11 1 27 -12 15 -12 16 0 6 21 -20
32 -15 26 10 -3 12 -3 16 0 10 4 -9 11 -10 22 -4z m-73 -29 c3 -5 1 -10 -4
-10 -6 0 -11 5 -11 10 0 6 2 10 4 10 3 0 8 -4 11 -10z m-15 -480 c0 -5 -5 -10
-11 -10 -5 0 -7 5 -4 10 3 6 8 10 11 10 2 0 4 -4 4 -10z m-40 -17 c0 -10 -4
-14 -8 -8 -4 6 -11 13 -16 18 -5 4 -2 7 7 7 10 0 17 -8 17 -17z m83 -10 c-7
-2 -19 -2 -25 0 -7 3 -2 5 12 5 14 0 19 -2 13 -5z m-23 -25 c0 -6 -6 -5 -15 2
-8 7 -15 14 -15 16 0 2 7 1 15 -2 8 -4 15 -11 15 -16z m-410 -1498 c0 -13 -20
-13 -40 0 -12 8 -9 10 13 10 15 0 27 -4 27 -10z m-27 -40 c19 -23 21 -30 8
-30 -5 0 -16 11 -25 25 -20 30 -8 33 17 5z m-1806 -672 c-3 -8 -6 -5 -6 6 -1
11 2 17 5 13 3 -3 4 -12 1 -19z m-317 -58 c0 -5 -7 -10 -16 -10 -8 0 -12 5 -9
10 3 6 10 10 16 10 5 0 9 -4 9 -10z m360 -24 c0 -11 -19 -15 -25 -6 -3 5 1 10
9 10 9 0 16 -2 16 -4z m94 -65 c-7 -9 -35 30 -29 40 5 7 12 2 19 -13 7 -12 11
-25 10 -27z m-308 -48 c-11 -11 -19 6 -11 24 8 17 8 17 12 0 3 -10 2 -21 -1
-24z m-62 8 c3 -5 -1 -11 -9 -15 -9 -3 -15 0 -15 9 0 16 16 20 24 6z m2178
-476 c-5 -27 -16 -32 -28 -13 -4 6 1 17 11 25 24 17 23 17 17 -12z m594 -1051
c-3 -9 -2 -12 4 -9 12 8 71 -45 64 -57 -3 -4 1 -8 9 -8 7 0 23 -9 35 -20 12
-11 25 -20 30 -20 5 0 15 -11 22 -25 8 -14 33 -38 56 -52 23 -15 41 -30 38
-34 -2 -4 27 -25 64 -48 37 -22 85 -58 108 -78 58 -54 164 -187 164 -206 0
-10 11 -27 24 -38 14 -12 22 -28 19 -35 -3 -8 0 -21 7 -29 10 -12 10 -15 -1
-15 -10 0 -10 -3 -1 -12 7 -7 12 -19 12 -27 1 -9 9 -34 20 -56 10 -22 16 -44
13 -49 -4 -5 1 -7 9 -3 10 3 19 -3 26 -17 5 -13 34 -39 64 -58 64 -43 218
-188 218 -206 0 -6 7 -12 15 -12 8 0 16 -6 16 -12 1 -7 2 -17 4 -23 1 -5 3
-19 4 -30 1 -17 3 -18 11 -5 5 8 10 11 11 5 1 -5 2 -14 4 -20 1 -5 3 -15 3
-22 1 -6 11 -15 23 -18 11 -4 18 -9 16 -12 -7 -7 -1 -13 257 -273 126 -126
235 -230 242 -230 7 0 16 -5 20 -12 4 -7 3 -8 -4 -4 -21 13 -13 0 26 -42 22
-23 45 -42 52 -42 6 0 10 -6 7 -14 -6 -14 13 -33 56 -55 20 -11 24 -18 16 -27
-7 -9 -5 -14 10 -19 12 -3 21 -11 21 -17 0 -6 15 -27 33 -48 38 -44 61 -76 58
-84 -1 -4 10 -19 24 -34 14 -15 28 -35 31 -45 3 -9 10 -15 15 -12 5 4 9 -2 9
-12 0 -11 4 -23 8 -28 5 -6 17 -36 26 -67 10 -32 22 -58 27 -58 6 0 9 -8 7
-17 -2 -10 2 -17 8 -16 7 1 20 -7 29 -17 20 -22 8 -28 -15 -7 -8 6 -6 1 5 -12
14 -17 16 -25 8 -28 -7 -3 -13 -9 -13 -14 0 -4 6 -6 14 -3 9 4 14 -2 14 -18 0
-13 4 -36 8 -52 5 -22 4 -27 -6 -21 -10 6 -12 0 -7 -26 3 -19 9 -43 13 -53 5
-14 4 -17 -4 -12 -7 4 -12 1 -12 -8 0 -9 4 -16 9 -16 5 0 8 -16 7 -35 -2 -19
0 -35 3 -35 9 0 8 -97 -2 -106 -4 -4 -4 -23 -1 -41 6 -29 4 -33 -12 -27 -13 4
-15 3 -6 -3 15 -11 23 -81 10 -85 -5 -2 -2 -17 6 -33 20 -38 20 -51 1 -59 -8
-3 -15 -14 -15 -25 0 -11 -4 -23 -10 -26 -5 -3 -9 -14 -9 -23 1 -15 2 -15 6 1
6 21 23 23 23 1 0 -11 6 -14 21 -9 11 4 31 4 44 1 27 -7 65 -66 65 -102 0 -13
5 -24 10 -24 6 0 10 -8 10 -17 0 -10 7 -27 15 -37 8 -11 15 -29 15 -41 0 -12
11 -50 25 -86 14 -35 26 -87 27 -116 1 -31 6 -51 12 -50 18 3 16 -151 -2 -197
-12 -30 -13 -43 -4 -57 10 -15 9 -19 0 -20 -10 0 -10 -2 -1 -6 16 -6 6 -53
-14 -69 -11 -10 -9 -13 12 -18 28 -7 35 -43 9 -53 -11 -4 -14 -13 -9 -32 4
-14 8 -35 10 -46 1 -11 6 -27 9 -36 9 -21 -22 -49 -33 -30 -6 9 -10 3 -13 -17
-4 -30 -4 -30 23 -17 l27 14 -9 -36 c-4 -20 -5 -41 -2 -46 3 -5 -1 -14 -8 -19
-11 -8 -10 -9 3 -4 19 6 34 -9 18 -19 -5 -3 -10 -14 -10 -23 0 -15 2 -15 10
-2 9 13 10 13 11 0 0 -8 2 -41 4 -72 4 -47 2 -56 -10 -51 -8 3 -15 0 -15 -6 0
-6 7 -11 15 -11 16 0 20 -12 8 -24 -9 -9 -4 -86 7 -105 5 -9 -2 -24 -21 -42
-35 -34 -36 -39 -6 -32 16 3 18 2 9 -5 -11 -7 -8 -11 12 -16 29 -7 34 -23 11
-32 -8 -4 -15 -14 -15 -23 0 -14 2 -14 10 -1 6 9 10 10 10 3 0 -6 3 -19 7 -28
5 -14 2 -16 -15 -10 -16 5 -22 2 -22 -9 0 -9 6 -16 14 -16 8 0 17 -4 20 -9 3
-4 -6 -6 -21 -3 -21 4 -25 2 -20 -10 3 -9 1 -20 -5 -26 -7 -7 -4 -14 10 -23
19 -12 20 -15 5 -42 -13 -26 -13 -29 0 -24 11 4 13 0 9 -15 -3 -14 -1 -19 6
-14 17 10 15 0 -4 -18 -12 -12 -12 -16 -2 -16 10 0 10 -2 -1 -9 -10 -6 -10
-13 -3 -28 6 -11 7 -25 2 -33 -5 -8 -6 -18 -3 -22 2 -5 -1 -15 -7 -23 -7 -8
-9 -15 -5 -15 5 0 0 -10 -11 -22 -10 -12 -13 -18 -6 -14 15 9 16 -6 0 -22 -9
-9 -9 -12 0 -12 7 0 12 -4 12 -10 0 -5 -7 -10 -16 -10 -8 0 -12 -5 -9 -10 4
-6 16 -8 28 -5 12 2 16 2 10 -1 -18 -8 -16 -34 2 -34 8 0 15 -5 15 -11 0 -6
-7 -9 -14 -6 -11 4 -13 1 -9 -10 5 -12 3 -14 -7 -8 -8 5 -11 4 -6 -3 3 -6 2
-13 -4 -17 -13 -8 -13 -35 0 -35 6 0 10 7 10 17 0 9 3 13 6 10 4 -3 6 -34 5
-68 -1 -34 4 -68 10 -76 10 -11 8 -12 -5 -7 -15 6 -16 0 -10 -48 5 -42 2 -62
-12 -89 -11 -22 -18 -58 -19 -99 0 -36 -5 -71 -9 -78 -4 -7 -3 -19 4 -27 13
-16 -3 -30 -21 -19 -9 5 -11 -11 -7 -59 4 -44 2 -66 -5 -64 -9 2 -14 -33 -7
-48 6 -13 6 -32 -2 -47 -4 -9 -10 -83 -13 -165 -5 -138 -10 -191 -22 -253 -11
-60 -24 -168 -24 -202 1 -20 -5 -41 -12 -45 -6 -4 -13 -19 -14 -33 -1 -14 -5
-54 -9 -90 -3 -36 -6 -91 -6 -122 0 -43 -4 -58 -14 -58 -17 0 -18 -16 -1 -24
10 -5 10 -7 0 -12 -7 -3 -13 -23 -13 -44 0 -21 -5 -42 -11 -45 -5 -4 -8 -12
-6 -18 2 -7 -2 -29 -11 -50 -8 -21 -12 -50 -9 -67 4 -16 2 -32 -3 -35 -14 -9
-12 -45 3 -45 9 0 8 -3 -2 -9 -8 -6 -13 -28 -12 -65 0 -31 -3 -56 -8 -56 -5 0
-9 -39 -10 -86 0 -48 -5 -92 -11 -99 -6 -7 -12 -31 -14 -54 -2 -23 -6 -44 -9
-47 -3 -3 -3 -13 0 -22 4 -10 2 -13 -5 -8 -7 4 -11 24 -9 47 2 22 0 42 -4 45
-4 2 -8 35 -8 72 -1 105 -1 106 -13 113 -7 4 -13 27 -14 51 -6 133 -32 488
-48 653 -3 22 -9 103 -16 180 -6 77 -12 145 -15 152 -2 7 0 15 4 17 9 6 7 21
-10 116 -5 30 -11 73 -14 95 -11 93 -14 124 -21 188 -3 37 -17 113 -29 169
-13 55 -21 106 -19 113 3 7 0 16 -6 20 -7 4 -8 11 -1 19 6 8 3 35 -9 82 -11
39 -20 88 -21 110 -2 21 -6 46 -10 54 -10 20 -27 112 -35 185 -4 33 -10 65
-14 70 -11 16 -32 89 -29 100 4 12 -19 149 -31 185 -7 20 -19 94 -25 155 -6
60 -23 132 -57 245 -22 74 -46 156 -54 182 -8 26 -14 57 -14 70 0 13 -4 28 -9
33 -6 6 -17 42 -26 80 -22 96 -40 167 -48 185 -4 12 -23 84 -42 160 -11 47
-67 238 -75 255 -5 11 -27 70 -50 130 -22 61 -49 129 -60 153 -11 23 -20 49
-20 57 0 8 -10 25 -22 37 -11 11 -22 32 -24 45 -1 14 -9 32 -16 41 -8 10 -26
43 -41 74 -15 31 -32 63 -39 70 -14 15 -33 46 -60 97 -9 18 -23 41 -31 50 -8
9 -17 30 -20 46 -30 159 -69 338 -83 379 -18 54 -59 151 -75 176 -5 8 -16 30
-24 48 -51 109 -67 143 -95 192 -17 30 -39 62 -49 70 -25 22 -32 60 -19 97 10
27 9 35 -5 51 -9 10 -17 24 -17 30 0 7 -5 12 -11 12 -6 0 -8 -7 -5 -16 8 -21
-11 -8 -25 18 -10 18 -8 19 11 13 16 -5 21 -3 18 6 -3 8 -10 15 -16 15 -7 1
-16 2 -21 3 -12 1 -2 41 11 41 5 0 6 5 3 10 -3 6 -15 10 -25 10 -22 0 -34 15
-24 31 4 8 9 7 15 -2 11 -17 12 13 3 48 -5 19 -11 22 -32 16 -18 -4 -23 -2
-18 6 4 6 12 9 17 6 15 -10 10 49 -6 71 -14 19 -14 19 -15 -1 -1 -19 -1 -19
-11 -2 -7 12 -8 22 -2 28 11 11 5 59 -8 59 -4 0 -8 8 -8 18 -1 45 -8 65 -26
75 -24 15 -31 37 -10 37 21 0 19 21 -3 27 -14 3 -19 16 -21 53 -3 70 -9 93
-26 106 -8 6 -12 14 -9 17 11 10 -7 67 -22 67 -11 0 -11 5 -3 24 15 32 -3 66
-31 59 -18 -5 -19 -3 -10 21 12 31 4 57 -16 49 -9 -3 -14 1 -14 12 0 10 -5 14
-12 9 -10 -5 -10 -3 0 7 11 12 14 12 22 -1 8 -12 10 -11 10 6 0 22 -21 46 -36
43 -22 -4 -35 2 -28 13 5 8 2 9 -9 5 -11 -4 -17 -1 -17 9 0 8 4 13 8 10 4 -2
6 11 4 30 -2 19 -8 34 -14 34 -5 0 -6 -5 -2 -12 5 -7 3 -8 -6 -3 -10 6 -10 11
3 20 23 17 21 25 -5 26 -23 0 -23 0 1 10 27 11 30 9 35 -17 3 -11 11 -35 20
-54 l15 -35 1 33 c0 17 -4 32 -9 32 -4 0 -11 30 -14 66 -5 68 -13 87 -26 66
-6 -10 -16 -6 -39 17 -27 27 -29 34 -19 55 11 22 13 23 29 9 15 -13 16 -13 11
6 -3 12 -9 24 -14 27 -5 3 -9 48 -9 100 0 86 -8 112 -25 84 -8 -13 -45 26 -45
47 0 7 -6 13 -13 13 -20 0 -45 52 -53 111 -4 29 -10 59 -13 64 -4 6 -7 24 -7
41 1 26 -2 30 -19 26 -18 -4 -17 -3 4 17 28 25 46 27 37 5z m-2543 -151 c-3
-7 0 -13 6 -13 6 0 11 5 11 10 0 20 20 10 34 -17 8 -16 28 -37 45 -48 17 -11
31 -23 31 -27 0 -7 42 -73 60 -95 5 -7 10 -17 10 -23 0 -6 14 -31 30 -55 17
-24 30 -49 30 -57 0 -13 46 -141 61 -171 5 -10 7 -22 5 -26 -3 -5 3 -16 14
-26 11 -10 20 -26 20 -36 0 -11 10 -30 21 -43 12 -14 27 -35 33 -48 7 -13 21
-23 34 -24 18 -1 22 4 22 27 0 22 5 29 19 29 11 0 23 -9 26 -20 9 -29 23 -25
17 5 -4 21 0 25 19 26 13 0 18 3 12 6 -22 8 -14 21 10 17 12 -2 16 -2 10 2 -7
3 -13 10 -13 15 0 6 5 7 10 4 6 -3 10 0 11 7 0 7 5 2 10 -12 8 -20 12 -22 20
-10 8 13 10 13 19 0 8 -13 10 -12 10 4 0 13 5 16 16 12 12 -4 15 -2 10 9 -3 8
-1 15 4 15 6 0 10 -7 10 -15 0 -8 6 -15 13 -15 8 0 7 -4 -3 -10 -11 -7 -11
-10 -2 -10 7 0 10 -5 6 -12 -4 -6 -3 -8 3 -5 11 7 43 -27 43 -47 0 -22 11 -46
21 -46 4 0 5 7 2 17 -5 11 -3 14 6 9 7 -5 11 -17 8 -27 -3 -10 -1 -22 4 -25 5
-3 8 -13 7 -22 -2 -11 5 -18 20 -20 22 -3 32 -22 11 -22 -6 0 -1 -9 12 -20 13
-10 19 -19 13 -20 -8 0 -9 -13 -4 -41 6 -32 4 -42 -8 -46 -12 -5 -11 -8 6 -14
13 -5 20 -14 16 -23 -3 -8 3 -19 16 -26 11 -6 18 -15 15 -20 -3 -5 10 -16 30
-24 36 -15 50 -42 16 -33 -15 3 -18 -1 -18 -22 0 -14 2 -20 4 -13 5 13 24 17
22 5 -4 -24 2 -43 12 -37 6 3 9 17 6 30 -2 13 0 24 5 24 13 0 -1 43 -18 56
-12 10 -11 12 5 17 21 5 46 -15 33 -27 -4 -4 1 -14 11 -21 17 -12 17 -14 1
-30 -10 -10 -13 -20 -7 -26 5 -5 14 4 22 26 11 31 16 35 50 35 39 0 61 -14 60
-39 0 -11 -3 -10 -9 4 -6 15 -9 16 -9 4 -1 -9 9 -27 20 -40 l21 -24 -6 25 c-6
19 -5 21 3 10 9 -13 11 -13 11 -1 0 11 4 9 14 -4 8 -11 12 -24 9 -28 -3 -5 5
-15 17 -24 20 -14 21 -16 4 -34 -10 -11 -19 -29 -21 -41 -3 -17 -1 -19 11 -9
8 7 12 20 9 29 -5 13 -3 14 6 6 10 -9 10 -16 0 -32 -16 -26 -2 -44 15 -20 10
13 12 9 12 -28 0 -28 -5 -44 -13 -44 -7 0 -10 -7 -6 -17 5 -14 9 -13 26 8 18
22 64 38 51 18 -3 -5 3 -10 13 -10 16 -1 16 -2 1 -6 -10 -2 -15 -10 -11 -19 3
-8 -1 -14 -11 -14 -13 0 -15 6 -11 28 6 25 6 26 -9 8 -13 -17 -13 -22 0 -47
19 -37 10 -38 -11 -1 -15 24 -16 25 -11 4 3 -18 1 -22 -10 -18 -20 8 -18 -14
4 -30 13 -11 14 -15 4 -22 -13 -9 -6 -42 9 -42 5 0 8 -10 8 -22 -1 -17 -2 -19
-6 -5 -5 17 -15 22 -26 11 -3 -3 5 -17 19 -31 18 -18 22 -28 15 -37 -14 -17
23 -58 44 -50 11 4 15 -1 16 -17 0 -13 3 -18 6 -11 5 14 23 16 23 3 0 -5 -7
-16 -15 -25 -14 -14 -13 -17 10 -32 14 -9 25 -25 25 -35 0 -11 6 -19 14 -19 8
0 16 -5 18 -11 2 -6 20 -11 40 -12 33 -1 38 -5 53 -42 16 -36 20 -40 51 -39
19 1 34 -3 34 -9 0 -6 3 -8 6 -4 9 9 55 -36 50 -50 -3 -7 1 -10 10 -6 12 5 19
-7 15 -29 0 -5 3 -8 9 -8 5 0 10 -7 10 -15 0 -9 10 -15 23 -16 16 -1 18 -2 5
-6 -24 -6 -23 -23 2 -23 11 0 19 -3 18 -7 -5 -25 17 -82 38 -98 13 -10 24 -23
24 -30 0 -7 10 -15 23 -19 19 -5 20 -8 7 -17 -12 -9 -10 -10 9 -5 18 4 21 2
12 -7 -17 -17 -13 -30 9 -24 23 6 27 -11 5 -19 -21 -9 -19 -25 3 -17 16 5 16
5 0 -8 -9 -8 -18 -23 -20 -34 -2 -11 -7 -23 -12 -27 -5 -3 -2 -14 7 -23 20
-19 22 -36 5 -53 -9 -9 -9 -18 0 -37 10 -21 9 -27 -3 -31 -22 -9 -18 -27 5
-21 11 3 18 1 14 -4 -3 -5 2 -9 11 -9 15 0 15 -1 0 -16 -9 -10 -12 -20 -7 -23
16 -10 21 -55 12 -96 -5 -24 -5 -44 0 -51 6 -6 7 -14 3 -17 -3 -4 -1 -12 5
-20 6 -7 15 -40 21 -72 12 -75 33 -145 44 -145 5 0 5 -4 2 -10 -3 -5 -3 -16 2
-22 4 -7 8 -26 9 -43 1 -16 7 -68 13 -115 7 -54 7 -99 1 -124 -6 -26 -5 -46 2
-60 8 -15 8 -21 -1 -24 -8 -3 -9 -8 -2 -15 5 -7 12 -43 15 -81 4 -38 10 -74
15 -80 5 -6 11 -42 15 -81 6 -78 9 -95 17 -110 3 -5 6 -37 8 -70 2 -33 7 -67
12 -77 7 -14 18 -91 20 -148 1 -8 7 -35 15 -60 7 -25 16 -70 18 -100 6 -67 43
-275 55 -310 5 -14 10 -32 10 -40 2 -21 10 -88 17 -130 9 -60 11 -221 2 -226
-4 -3 -8 -20 -8 -37 0 -18 -7 -42 -15 -53 -8 -12 -11 -24 -8 -28 3 -3 2 -6 -4
-6 -6 0 -13 -9 -16 -20 -3 -13 -10 -18 -21 -14 -11 4 -16 0 -16 -14 0 -11 5
-22 12 -24 6 -2 8 -10 4 -16 -11 -18 -26 -15 -26 6 -1 15 -3 15 -18 -4 -10
-11 -23 -19 -31 -16 -11 4 -11 0 0 -19 12 -23 11 -23 -6 -9 -17 14 -17 14 -1
-17 16 -31 16 -33 -1 -34 -16 -1 -16 -2 1 -6 15 -4 16 -7 5 -14 -11 -7 -11 -9
3 -9 12 0 15 -6 11 -22 -8 -32 -5 -78 5 -92 13 -16 8 -109 -6 -114 -20 -6 -14
-20 11 -24 17 -2 22 -9 21 -31 -1 -15 3 -27 8 -27 5 0 4 -9 -2 -20 -10 -18 -7
-24 13 -21 12 2 8 -17 -5 -22 -10 -3 -10 -7 -2 -18 6 -8 14 -33 18 -56 3 -23
9 -48 12 -57 4 -11 0 -16 -12 -17 -17 -1 -17 -2 -1 -6 9 -2 17 -9 17 -14 0 -6
-4 -7 -10 -4 -5 3 -10 1 -10 -4 0 -6 5 -11 11 -11 7 0 8 -11 4 -30 -5 -23 -3
-30 9 -30 14 0 14 -2 -1 -20 -16 -18 -18 -19 -24 -3 -5 15 -6 15 -12 -1 -8
-21 0 -39 14 -31 5 4 9 1 9 -5 0 -7 -9 -14 -19 -17 -16 -4 -17 -8 -8 -18 9 -9
14 -10 19 -1 6 8 8 7 8 -2 0 -24 -31 -25 -52 -2 -15 16 -17 24 -9 30 10 5 9
11 -3 22 -8 9 -12 19 -8 22 3 4 -1 4 -11 0 -10 -3 -17 -1 -17 5 0 6 6 11 13
11 7 0 4 7 -7 15 -11 8 -14 15 -7 15 7 0 -3 19 -21 43 -34 41 -108 162 -113
182 -8 38 -19 71 -25 80 -21 30 -39 121 -41 209 -1 87 -13 151 -30 166 -3 3
-11 21 -19 40 -8 19 -16 37 -19 40 -13 12 -39 67 -46 97 -3 18 -22 65 -41 103
-19 39 -34 75 -34 79 0 5 -6 22 -14 38 -29 58 -49 109 -51 130 -4 28 -25 95
-35 108 -4 6 -11 26 -15 45 -4 19 -16 51 -26 71 -10 20 -20 47 -22 60 -6 34
-19 62 -34 74 -7 6 -15 21 -18 34 -3 14 -11 28 -18 33 -8 4 -14 18 -13 30 1
13 -7 31 -18 41 -10 9 -16 17 -11 17 4 0 3 6 -3 13 -5 6 -15 38 -22 70 -6 31
-15 57 -20 57 -4 0 -11 12 -14 26 -4 14 -15 34 -25 45 -10 11 -24 32 -31 47
-7 15 -16 34 -21 42 -5 8 -20 38 -34 67 -14 28 -32 58 -40 66 -8 9 -17 26 -19
39 -2 13 -8 22 -14 21 -5 -1 -8 6 -5 16 2 10 -1 24 -9 32 -7 8 -20 30 -29 49
-51 108 -68 148 -74 178 -4 18 -15 36 -24 42 -11 5 -21 26 -24 47 -4 21 -18
55 -32 75 -14 20 -25 48 -25 61 0 13 -7 32 -15 43 -8 10 -15 27 -15 37 0 10
-11 35 -25 55 -14 20 -25 45 -25 55 0 11 -8 31 -19 45 -10 15 -24 44 -30 64
-7 20 -19 42 -27 48 -7 7 -14 20 -14 29 0 10 -7 26 -15 37 -8 10 -15 27 -15
37 0 9 -4 17 -9 17 -5 0 -12 12 -16 27 -3 15 -15 34 -26 44 -11 9 -17 23 -14
31 3 8 -1 21 -10 28 -8 7 -15 16 -15 21 0 10 -61 141 -70 149 -4 4 -37 71 -68
140 -7 14 -16 32 -21 40 -48 84 -71 174 -71 282 0 37 -4 69 -9 72 -4 3 -11 22
-14 43 -4 22 -17 46 -32 59 -14 12 -26 34 -27 49 -2 15 -9 30 -18 33 -31 12
-51 54 -50 110 0 12 -6 22 -14 22 -9 0 -12 7 -9 19 2 10 -3 26 -12 35 -10 9
-15 20 -12 23 4 3 -1 19 -9 35 -8 15 -17 52 -20 81 -3 28 -9 70 -14 92 -4 22
-7 59 -6 83 0 23 -2 42 -6 42 -5 0 -8 11 -8 24 0 13 -7 42 -15 65 -8 23 -15
59 -16 79 -1 20 -5 42 -8 47 -3 6 -6 12 -7 15 0 3 -6 25 -13 50 -7 24 -15 63
-17 85 -2 22 -6 51 -9 65 -3 14 -8 46 -11 73 -4 26 -11 50 -15 53 -5 3 -9 15
-9 28 0 12 -3 26 -7 30 -12 12 -14 56 -3 56 6 0 8 4 5 10 -3 5 -8 29 -11 52
-3 23 -8 47 -12 52 -3 6 -6 21 -7 33 0 12 -3 24 -6 28 -12 12 1 205 16 234 8
16 12 30 10 33 -2 2 4 4 14 4 11 0 17 -6 14 -13z m2667 -294 c0 -10 -4 -19
-10 -19 -5 0 -10 12 -10 26 0 14 4 23 10 19 6 -3 10 -15 10 -26z m-3150 -29
c0 -5 -5 -10 -11 -10 -5 0 -7 5 -4 10 3 6 8 10 11 10 2 0 4 -4 4 -10z m20 -30
c0 -5 -5 -10 -11 -10 -5 0 -7 5 -4 10 3 6 8 10 11 10 2 0 4 -4 4 -10z m-40
-20 c-8 -5 -17 -7 -19 -4 -3 3 1 9 9 14 8 5 17 7 19 4 3 -3 -1 -9 -9 -14z m10
-31 c0 -5 -4 -8 -8 -5 -11 6 -10 -59 1 -70 4 -4 7 4 7 17 0 40 11 69 26 69 8
0 14 -4 14 -10 0 -5 8 -10 17 -10 13 0 14 -3 5 -12 -7 -7 -12 -19 -11 -27 0
-11 2 -12 6 -3 7 18 23 15 21 -5 -3 -37 2 -55 15 -50 15 6 17 -54 2 -66 -7 -6
-6 -10 3 -14 6 -2 12 -16 12 -29 0 -14 -4 -23 -9 -19 -5 3 -12 1 -16 -5 -3 -5
-2 -10 3 -10 5 0 12 -9 15 -20 3 -11 1 -20 -3 -20 -5 0 -11 -14 -15 -31 l-7
-30 -23 28 c-13 15 -25 36 -27 48 -2 12 -12 21 -25 23 -19 3 -23 10 -25 40 -1
20 -2 44 -4 52 -1 8 -2 23 -3 33 -1 11 -6 15 -12 11 -9 -5 -10 1 -5 22 4 16 7
36 7 44 1 36 10 60 24 60 8 0 15 -5 15 -11z m3193 -124 c-3 -9 -8 -14 -10 -11
-3 3 -2 9 2 15 9 16 15 13 8 -4z m-2253 -156 c0 -5 -4 -9 -10 -9 -5 0 -10 7
-10 16 0 8 5 12 10 9 6 -3 10 -10 10 -16z m-820 -123 c0 -3 -4 -8 -10 -11 -5
-3 -10 -1 -10 4 0 6 5 11 10 11 6 0 10 -2 10 -4z m3227 -161 c0 -8 -4 -15 -9
-15 -4 0 -8 7 -8 15 0 8 4 15 8 15 5 0 9 -7 9 -15z m-1934 -30 c4 -8 2 -17 -3
-20 -6 -4 -10 3 -10 14 0 25 6 27 13 6z m2207 -760 c0 -8 -4 -15 -8 -15 -5 0
-9 7 -9 15 0 8 4 15 9 15 4 0 8 -7 8 -15z m1820 -2726 c0 -6 -4 -7 -10 -4 -5
3 -10 11 -10 16 0 6 5 7 10 4 6 -3 10 -11 10 -16z m-2810 -1526 c-1 -18 -18
-35 -24 -24 -4 6 -4 16 -1 21 7 12 25 13 25 3z m-11493 -2495 c-3 -8 -6 -5 -6
6 -1 11 2 17 5 13 3 -3 4 -12 1 -19z"/>
<path d="M11580 21140 c0 -5 5 -10 10 -10 6 0 10 5 10 10 0 6 -4 10 -10 10 -5
0 -10 -4 -10 -10z"/>
<path d="M10160 16009 c0 -5 5 -7 10 -4 6 3 10 8 10 11 0 2 -4 4 -10 4 -5 0
-10 -5 -10 -11z"/>
<path d="M9955 15860 c-3 -5 1 -10 10 -10 9 0 13 5 10 10 -3 6 -8 10 -10 10
-2 0 -7 -4 -10 -10z"/>
<path d="M9242 15700 c0 -14 2 -19 5 -12 2 6 2 18 0 25 -3 6 -5 1 -5 -13z"/>
<path d="M12107 13103 c-11 -11 -8 -21 9 -27 14 -5 15 -4 5 8 -9 11 -9 15 1
19 7 3 8 6 2 6 -6 1 -14 -2 -17 -6z"/>
<path d="M14462 6155 c0 -16 2 -22 5 -12 2 9 2 23 0 30 -3 6 -5 -1 -5 -18z"/>
<path d="M14475 5570 c3 -5 8 -10 11 -10 2 0 4 5 4 10 0 6 -5 10 -11 10 -5 0
-7 -4 -4 -10z"/>
<path d="M13910 4641 c0 -6 5 -13 10 -16 6 -3 10 1 10 9 0 9 -4 16 -10 16 -5
0 -10 -4 -10 -9z"/>
<path d="M14736 4624 c-4 -10 -1 -14 6 -12 15 5 23 28 10 28 -5 0 -13 -7 -16
-16z"/>
<path d="M14755 4250 c3 -5 8 -10 11 -10 2 0 4 5 4 10 0 6 -5 10 -11 10 -5 0
-7 -4 -4 -10z"/>
<path d="M14740 3712 c0 -5 7 -9 15 -9 8 0 15 4 15 9 0 4 -7 8 -15 8 -8 0 -15
-4 -15 -8z"/>
<path d="M14471 944 c0 -11 3 -14 6 -6 3 7 2 16 -1 19 -3 4 -6 -2 -5 -13z"/>
<path d="M10893 7447 c0 -7 9 -13 19 -13 10 0 18 6 18 13 0 7 -8 13 -18 13
-10 0 -19 -6 -19 -13z"/>
<path d="M10940 7451 c0 -6 5 -13 10 -16 6 -3 10 1 10 9 0 9 -4 16 -10 16 -5
0 -10 -4 -10 -9z"/>
<path d="M10940 7396 c0 -9 5 -16 10 -16 6 0 10 4 10 9 0 6 -4 13 -10 16 -5 3
-10 -1 -10 -9z"/>
<path d="M11040 7054 c0 -8 5 -12 10 -9 6 4 8 11 5 16 -9 14 -15 11 -15 -7z"/>
<path d="M11335 6650 c4 -6 11 -8 16 -5 14 9 11 15 -7 15 -8 0 -12 -5 -9 -10z"/>
<path d="M11945 2800 c-3 -5 -2 -10 4 -10 5 0 13 5 16 10 3 6 2 10 -4 10 -5 0
-13 -4 -16 -10z"/>
<path d="M9387 8123 c-4 -3 -7 -16 -6 -27 0 -19 1 -19 10 3 10 24 8 36 -4 24z"/>
<path d="M9335 8050 c3 -5 8 -10 11 -10 2 0 4 5 4 10 0 6 -5 10 -11 10 -5 0
-7 -4 -4 -10z"/>
<path d="M11375 21860 c-3 -5 1 -10 10 -10 9 0 13 5 10 10 -3 6 -8 10 -10 10
-2 0 -7 -4 -10 -10z"/>
<path d="M11116 21833 c-6 -14 -5 -15 5 -6 7 7 10 15 7 18 -3 3 -9 -2 -12 -12z"/>
<path d="M11395 21680 c3 -5 11 -10 16 -10 6 0 7 5 4 10 -3 6 -11 10 -16 10
-6 0 -7 -4 -4 -10z"/>
<path d="M11422 21628 c-16 -16 -15 -37 3 -44 8 -4 12 -10 9 -15 -3 -5 -1 -9
5 -9 6 0 13 -11 16 -23 4 -15 19 -29 41 -37 18 -8 32 -16 29 -18 -9 -9 17 -32
36 -32 18 0 18 1 1 34 -9 18 -23 31 -29 29 -7 -3 -13 0 -13 7 0 7 -14 29 -30
51 -21 26 -36 36 -47 32 -13 -5 -15 -2 -11 15 7 25 6 26 -10 10z"/>
<path d="M11590 21419 c7 -11 14 -18 17 -15 8 8 -5 36 -17 36 -7 0 -7 -6 0
-21z"/>
<path d="M12050 20900 c0 -5 5 -10 10 -10 6 0 10 5 10 10 0 6 -4 10 -10 10 -5
0 -10 -4 -10 -10z"/>
<path d="M12096 20865 c-3 -9 0 -15 8 -15 8 0 16 7 20 15 3 9 0 15 -8 15 -8 0
-16 -7 -20 -15z"/>
<path d="M12761 20444 c-21 -24 -3 -30 19 -6 13 14 16 22 8 22 -7 -1 -19 -8
-27 -16z"/>
<path d="M12712 20408 c2 -6 14 -13 27 -15 27 -4 20 12 -9 20 -13 3 -20 1 -18
-5z"/>
<path d="M12769 20415 c-1 -3 -2 -11 -3 -17 0 -7 -9 -13 -18 -13 -29 0 -33
-15 -5 -16 15 -1 33 -2 40 -3 6 -1 16 -10 21 -21 6 -15 10 -17 14 -6 5 16 -26
81 -40 81 -4 0 -9 -2 -9 -5z"/>
<path d="M10260 20230 c0 -5 5 -10 10 -10 6 0 10 5 10 10 0 6 -4 10 -10 10 -5
0 -10 -4 -10 -10z"/>
<path d="M12688 20173 c7 -3 16 -2 19 1 4 3 -2 6 -13 5 -11 0 -14 -3 -6 -6z"/>
<path d="M9910 20042 c0 -13 38 -23 46 -11 3 5 1 9 -5 9 -5 0 -16 3 -25 6 -9
3 -16 2 -16 -4z"/>
<path d="M9940 19999 c0 -5 5 -7 10 -4 6 3 10 8 10 11 0 2 -4 4 -10 4 -5 0
-10 -5 -10 -11z"/>
<path d="M9940 19970 c-8 -5 -11 -12 -8 -16 4 -3 14 1 23 10 18 17 9 21 -15 6z"/>
<path d="M12988 19963 c7 -3 16 -2 19 1 4 3 -2 6 -13 5 -11 0 -14 -3 -6 -6z"/>
<path d="M9938 19813 c6 -2 18 -2 25 0 6 3 1 5 -13 5 -14 0 -19 -2 -12 -5z"/>
<path d="M12490 19599 c0 -5 5 -7 10 -4 6 3 10 8 10 11 0 2 -4 4 -10 4 -5 0
-10 -5 -10 -11z"/>
<path d="M12857 19215 c-4 -8 -2 -17 3 -20 6 -4 10 3 10 14 0 25 -6 27 -13 6z"/>
<path d="M12670 19080 c0 -5 -18 -7 -40 -5 -22 2 -40 0 -40 -5 0 -6 7 -10 17
-10 13 0 12 -3 -5 -19 -23 -19 -30 -37 -11 -25 7 4 10 1 7 -7 -3 -8 -12 -13
-21 -11 -11 2 -15 -2 -11 -11 2 -7 0 -25 -5 -40 -6 -14 -6 -29 -2 -32 5 -3 9
-33 9 -67 1 -56 6 -113 11 -113 1 0 4 -20 6 -44 2 -24 8 -47 14 -50 5 -4 11
-18 13 -31 2 -14 6 -29 9 -35 16 -27 31 -108 27 -142 -3 -21 1 -55 9 -77 7
-21 13 -53 13 -72 0 -18 5 -45 11 -61 6 -15 12 -37 14 -48 1 -11 7 -40 13 -65
6 -25 14 -76 17 -114 3 -38 8 -73 10 -76 3 -4 7 -27 10 -51 3 -24 10 -59 16
-76 6 -18 8 -37 5 -42 -4 -5 -2 -12 3 -15 11 -7 19 -66 26 -201 11 -199 36
-365 56 -365 12 0 19 -44 8 -51 -6 -3 -2 -9 9 -11 16 -4 19 -2 15 10 -5 12 -2
14 11 9 25 -10 46 15 46 55 1 18 7 51 15 73 13 37 20 121 30 380 6 152 14 217
31 243 8 12 13 26 10 31 -3 5 4 17 15 27 11 10 17 24 14 31 -2 8 -1 12 4 8 14
-8 39 4 46 23 5 14 4 15 -6 5 -7 -7 -20 -13 -28 -12 -11 0 -12 2 -4 6 8 3 11
14 7 29 -5 18 -2 24 10 24 12 0 15 6 10 25 -4 16 -2 25 6 25 17 0 3 101 -16
116 -8 6 -14 16 -14 23 0 6 -4 11 -9 11 -5 0 -9 10 -9 23 -1 50 -10 104 -26
146 -19 52 -19 54 -5 45 7 -4 10 -1 7 7 -3 8 -10 14 -15 14 -20 0 -26 14 -9
21 9 3 16 14 16 23 0 9 5 22 11 28 8 8 8 13 0 17 -6 4 -11 3 -11 -3 0 -5 -9
-9 -19 -8 -16 1 -19 9 -19 46 0 36 -6 50 -24 66 -29 25 -41 52 -26 57 7 3 12
42 12 110 1 58 4 104 9 101 4 -2 7 0 7 6 0 14 -41 51 -55 51 -17 0 -55 35 -55
51 0 9 -3 10 -8 3 -9 -14 -52 -25 -52 -13 0 5 -9 9 -20 9 -11 0 -20 7 -20 15
0 11 -7 14 -24 9 -13 -3 -27 -1 -30 5 -9 14 -26 14 -26 1z m320 -540 c0 -5 -2
-10 -4 -10 -3 0 -8 5 -11 10 -3 6 -1 10 4 10 6 0 11 -4 11 -10z m70 -325 c0
-8 -9 -15 -20 -15 -11 0 -20 5 -20 11 0 5 4 8 9 4 5 -3 12 -1 16 5 9 14 15 12
15 -5z m-5 -35 c-3 -5 -14 -10 -23 -10 -15 0 -15 2 -2 10 20 13 33 13 25 0z"/>
<path d="M12490 18268 c0 -7 7 -21 14 -31 12 -16 14 -16 20 -1 9 23 7 31 -4
14 -8 -12 -10 -11 -10 8 0 12 -4 22 -10 22 -5 0 -10 -6 -10 -12z"/>
<path d="M10150 16699 c0 -5 5 -7 10 -4 6 3 10 8 10 11 0 2 -4 4 -10 4 -5 0
-10 -5 -10 -11z"/>
<path d="M13114 16680 c-12 -5 -25 -13 -29 -19 -3 -6 -13 -11 -21 -11 -8 0
-22 -8 -31 -18 -15 -14 -18 -35 -17 -127 0 -61 6 -129 13 -153 6 -24 11 -66
11 -95 -2 -58 6 -124 18 -159 5 -13 7 -54 6 -93 -2 -38 -3 -129 -3 -202 -1
-120 2 -141 29 -224 17 -50 30 -109 30 -131 0 -35 2 -39 15 -28 8 7 12 16 10
21 -3 4 3 18 14 31 11 13 19 26 18 29 -1 3 3 12 10 20 6 8 14 32 18 54 4 22
12 49 18 60 6 11 10 23 9 26 -1 4 19 65 44 135 51 143 68 198 63 200 -2 1 3
10 12 20 19 22 26 51 42 197 10 90 10 112 -2 134 -9 18 -10 32 -4 42 6 10 4
33 -7 69 -9 29 -16 67 -15 83 1 18 -3 29 -11 29 -7 0 -11 6 -8 14 3 7 -2 16
-10 19 -9 4 -13 13 -10 20 3 9 -7 23 -24 36 -33 23 -152 37 -188 21z"/>
<path d="M10211 16424 c0 -11 3 -14 6 -6 3 7 2 16 -1 19 -3 4 -6 -2 -5 -13z"/>
<path d="M12198 15723 c7 -3 16 -2 19 1 4 3 -2 6 -13 5 -11 0 -14 -3 -6 -6z"/>
<path d="M12515 15610 c-13 -4 -15 -9 -7 -14 18 -11 14 -24 -5 -21 -10 1 -12
0 -5 -2 8 -3 10 -12 7 -24 -8 -24 3 -25 21 -1 13 16 14 16 7 -2 -4 -13 -3 -17
5 -12 7 4 12 3 12 -2 0 -6 -7 -12 -15 -16 -17 -6 -21 -36 -5 -36 6 0 10 5 10
11 0 6 6 9 14 6 10 -4 12 0 8 16 -5 20 -4 21 13 7 17 -14 18 -13 12 10 -4 14
-7 28 -7 32 0 4 -7 5 -15 2 -11 -5 -13 -2 -9 10 8 22 -17 44 -41 36z"/>
<path d="M12450 15530 c0 -5 4 -10 9 -10 6 0 13 5 16 10 3 6 -1 10 -9 10 -9 0
-16 -4 -16 -10z"/>
<path d="M12480 15474 c0 -3 7 -12 15 -20 10 -11 15 -12 15 -3 0 7 8 2 19 -9
10 -12 24 -22 31 -22 18 0 -39 51 -61 55 -11 2 -19 2 -19 -1z"/>
<path d="M12570 15375 c-17 -21 -8 -28 15 -11 11 8 14 15 8 19 -6 4 -16 0 -23
-8z"/>
<path d="M12593 15353 c-18 -7 -16 -23 3 -23 8 0 12 -4 9 -10 -3 -5 -1 -10 4
-10 6 0 11 5 11 11 0 5 5 7 10 4 6 -3 10 1 10 10 0 9 -4 13 -10 10 -5 -3 -10
-1 -10 4 0 12 -7 13 -27 4z"/>
<path d="M12430 15038 c0 -4 4 -8 9 -8 6 0 12 4 15 8 3 5 -1 9 -9 9 -8 0 -15
-4 -15 -9z"/>
<path d="M12382 14980 c0 -14 2 -19 5 -12 2 6 2 18 0 25 -3 6 -5 1 -5 -13z"/>
<path d="M12428 14963 c7 -3 16 -2 19 1 4 3 -2 6 -13 5 -11 0 -14 -3 -6 -6z"/>
<path d="M11475 14770 c3 -5 8 -10 11 -10 2 0 4 5 4 10 0 6 -5 10 -11 10 -5 0
-7 -4 -4 -10z"/>
<path d="M12921 14518 c0 -16 2 -18 6 -8 3 8 11 18 17 22 7 5 4 8 -6 8 -12 0
-18 -7 -17 -22z"/>
<path d="M12450 13649 c0 -5 5 -7 10 -4 6 3 10 8 10 11 0 2 -4 4 -10 4 -5 0
-10 -5 -10 -11z"/>
<path d="M11681 11354 c0 -11 3 -14 6 -6 3 7 2 16 -1 19 -3 4 -6 -2 -5 -13z"/>
<path d="M12740 10572 c0 -15 18 -34 29 -31 7 3 3 11 -9 21 -11 10 -20 14 -20
10z"/>
<path d="M12790 10520 c0 -5 5 -10 10 -10 6 0 10 -7 10 -15 0 -8 5 -15 10 -15
17 0 11 25 -10 38 -12 7 -20 8 -20 2z"/>
<path d="M12905 10490 c4 -6 11 -8 16 -5 14 9 11 15 -7 15 -8 0 -12 -5 -9 -10z"/>
<path d="M12840 10478 c0 -8 9 -14 20 -14 24 0 21 20 -3 24 -9 2 -17 -3 -17
-10z"/>
<path d="M12940 10480 c0 -5 5 -10 11 -10 5 0 7 5 4 10 -3 6 -8 10 -11 10 -2
0 -4 -4 -4 -10z"/>
<path d="M13000 10436 c0 -3 14 -11 30 -20 33 -16 40 -11 13 10 -17 13 -43 19
-43 10z"/>
<path d="M12970 10410 c19 -13 30 -13 30 0 0 6 -10 10 -22 10 -19 0 -20 -2 -8
-10z"/>
<path d="M13024 10389 c-6 -10 11 -28 28 -29 15 0 20 23 7 31 -19 12 -26 11
-35 -2z"/>
<path d="M13096 10392 c-7 -12 7 -27 27 -30 22 -4 22 0 -3 20 -10 10 -21 14
-24 10z"/>
<path d="M9380 10370 c0 -5 5 -10 10 -10 6 0 10 5 10 10 0 6 -4 10 -10 10 -5
0 -10 -4 -10 -10z"/>
<path d="M9820 10341 c0 -5 9 -11 20 -14 24 -6 27 8 4 17 -21 8 -24 8 -24 -3z"/>
<path d="M13117 10334 c4 -12 46 -34 63 -34 6 0 10 5 10 11 0 6 -7 8 -16 5
-11 -4 -14 -1 -10 12 5 13 0 17 -23 17 -17 0 -27 -5 -24 -11z"/>
<path d="M9442 10300 c0 -14 2 -19 5 -12 2 6 2 18 0 25 -3 6 -5 1 -5 -13z"/>
<path d="M9530 10310 c0 -5 5 -10 10 -10 6 0 10 5 10 10 0 6 -4 10 -10 10 -5
0 -10 -4 -10 -10z"/>
<path d="M13194 10298 c-8 -13 6 -28 27 -28 12 0 19 7 19 18 0 18 -36 26 -46
10z"/>
<path d="M9495 10251 c-3 -5 3 -12 14 -16 11 -3 22 -16 24 -28 2 -12 4 -4 4
18 0 22 -2 34 -5 27 -2 -6 -8 -12 -13 -12 -6 0 -7 5 -4 10 3 6 2 10 -4 10 -5
0 -12 -4 -16 -9z"/>
<path d="M9555 10232 c3 -18 1 -41 -5 -52 -6 -12 -7 -20 -1 -20 5 0 12 6 14
13 4 9 8 9 16 -3 5 -8 7 -18 5 -22 -3 -4 -1 -8 5 -8 6 0 8 -8 4 -17 -3 -10 -3
-15 2 -11 4 4 14 3 20 -2 9 -8 14 -4 17 15 3 15 1 25 -7 25 -16 0 -55 47 -55
68 0 9 -5 24 -10 32 -8 11 -9 6 -5 -18z"/>
<path d="M13266 10251 c-3 -5 6 -16 20 -26 26 -17 41 -15 29 4 -10 17 -43 32
-49 22z"/>
<path d="M12805 10240 c-3 -5 -1 -10 4 -10 6 0 11 5 11 10 0 6 -2 10 -4 10 -3
0 -8 -4 -11 -10z"/>
<path d="M9760 10220 c0 -5 7 -10 16 -10 8 0 12 5 9 10 -3 6 -10 10 -16 10 -5
0 -9 -4 -9 -10z"/>
<path d="M13330 10200 c0 -6 7 -10 15 -10 8 0 15 2 15 4 0 2 -7 6 -15 10 -8 3
-15 1 -15 -4z"/>
<path d="M9780 10180 c0 -5 5 -10 11 -10 5 0 7 5 4 10 -3 6 -8 10 -11 10 -2 0
-4 -4 -4 -10z"/>
<path d="M9752 10160 c0 -14 2 -19 5 -12 2 6 2 18 0 25 -3 6 -5 1 -5 -13z"/>
<path d="M9710 10121 c-10 -11 -13 -26 -10 -41 6 -24 7 -24 14 8 4 18 12 30
17 26 5 -3 9 -1 9 5 0 17 -15 18 -30 2z"/>
<path d="M12189 10088 c0 -7 -2 -21 -4 -31 -6 -31 32 -101 64 -120 l31 -18 -5
51 c-5 52 -26 90 -65 117 -16 11 -20 12 -21 1z"/>
<path d="M9648 10083 c7 -3 16 -2 19 1 4 3 -2 6 -13 5 -11 0 -14 -3 -6 -6z"/>
<path d="M11750 9574 c0 -8 5 -12 10 -9 6 3 10 10 10 16 0 5 -4 9 -10 9 -5 0
-10 -7 -10 -16z"/>
<path d="M11850 9410 c0 -5 5 -10 10 -10 6 0 10 5 10 10 0 6 -4 10 -10 10 -5
0 -10 -4 -10 -10z"/>
<path d="M11870 9387 c0 -17 30 -65 44 -70 9 -4 13 -13 10 -20 -6 -17 21 -47
42 -47 12 0 11 5 -3 27 -33 51 -92 121 -93 110z"/>
<path d="M11978 9223 c7 -3 16 -2 19 1 4 3 -2 6 -13 5 -11 0 -14 -3 -6 -6z"/>
<path d="M11690 9060 c0 -5 4 -10 9 -10 6 0 13 5 16 10 3 6 -1 10 -9 10 -9 0
-16 -4 -16 -10z"/>
<path d="M11692 9021 c4 -13 18 -16 19 -4 0 4 -5 9 -11 12 -7 2 -11 -2 -8 -8z"/>
</g>
</svg>
